<svg width="26" height="19" viewBox="0 0 26 19" fill="none" xmlns="http://www.w3.org/2000/svg">
<path d="M9.71875 0.5625H2.6875C2.19022 0.5625 1.71331 0.760044 1.36167 1.11167C1.01004 1.46331 0.8125 1.94022 0.8125 2.4375V9.9375C0.8125 10.4348 1.01004 10.9117 1.36167 11.2633C1.71331 11.615 2.19022 11.8125 2.6875 11.8125H9.71875V12.75C9.71875 13.7446 9.32366 14.6984 8.6204 15.4016C7.91714 16.1049 6.96331 16.5 5.96875 16.5C5.72011 16.5 5.48165 16.5988 5.30584 16.7746C5.13002 16.9504 5.03125 17.1889 5.03125 17.4375C5.03125 17.6861 5.13002 17.9246 5.30584 18.1004C5.48165 18.2762 5.72011 18.375 5.96875 18.375C7.46012 18.3734 8.88996 17.7803 9.94451 16.7258C10.9991 15.6712 11.5922 14.2414 11.5938 12.75V2.4375C11.5938 1.94022 11.3962 1.46331 11.0446 1.11167C10.6929 0.760044 10.216 0.5625 9.71875 0.5625ZM9.71875 9.9375H2.6875V2.4375H9.71875V9.9375ZM23.3125 0.5625H16.2812C15.784 0.5625 15.3071 0.760044 14.9554 1.11167C14.6038 1.46331 14.4062 1.94022 14.4062 2.4375V9.9375C14.4062 10.4348 14.6038 10.9117 14.9554 11.2633C15.3071 11.615 15.784 11.8125 16.2812 11.8125H23.3125V12.75C23.3125 13.7446 22.9174 14.6984 22.2141 15.4016C21.5109 16.1049 20.5571 16.5 19.5625 16.5C19.3139 16.5 19.0754 16.5988 18.8996 16.7746C18.7238 16.9504 18.625 17.1889 18.625 17.4375C18.625 17.6861 18.7238 17.9246 18.8996 18.1004C19.0754 18.2762 19.3139 18.375 19.5625 18.375C21.0539 18.3734 22.4837 17.7803 23.5383 16.7258C24.5928 15.6712 25.1859 14.2414 25.1875 12.75V2.4375C25.1875 1.94022 24.99 1.46331 24.6383 1.11167C24.2867 0.760044 23.8098 0.5625 23.3125 0.5625ZM23.3125 9.9375H16.2812V2.4375H23.3125V9.9375Z" fill="#56585A"/>
</svg>
