<svg width="56" height="56" viewBox="0 0 56 56" fill="none" xmlns="http://www.w3.org/2000/svg">
<rect y="0.5" width="56" height="55" rx="8" fill="#4E97FD"/>
<path d="M38.2489 13.4622C38.1229 13.3572 37.964 13.2998 37.8002 13.2998H28.7002V16.7998H42.2536L38.2489 13.4622Z" fill="white"/>
<path d="M18.1995 13.2998C18.0357 13.2998 17.8775 13.3572 17.7515 13.4622L13.7461 16.7998H27.2995V13.2998H18.1995Z" fill="white"/>
<path d="M27.9998 18.1997H13.2998V41.9997C13.2998 42.3868 13.6134 42.6997 13.9998 42.6997H41.9998C42.3869 42.6997 42.6998 42.3868 42.6998 41.9997V18.1997H27.9998ZM34.2998 34.2997H32.8998V37.0997H31.4998V34.2997H30.0998L32.1998 32.1997L34.2998 34.2997ZM24.4998 22.7497C24.4998 22.1897 24.9898 21.6997 25.5498 21.6997H30.4498C31.0098 21.6997 31.4998 22.1897 31.4998 22.7497C31.4998 23.3097 31.0098 23.7997 30.4498 23.7997H25.5498C24.9898 23.7997 24.4998 23.3097 24.4998 22.7497ZM39.1998 39.1997H30.0998V37.7997H39.1998V39.1997ZM37.7998 34.2997V37.0997H36.3998V34.2997H34.9998L37.0998 32.1997L39.1998 34.2997H37.7998Z" fill="white"/>
</svg>
