<svg width="56" height="56" viewBox="0 0 56 56" fill="none" xmlns="http://www.w3.org/2000/svg">
<rect y="0.5" width="56" height="55" rx="8" fill="#4E97FD"/>
<path d="M39.1665 15.375H15.8492C14.2451 15.375 12.9311 16.6875 12.9311 18.2917L12.918 35.7902C12.918 37.4017 14.2232 38.7083 15.8346 38.7083H18.0207C18.4232 38.7083 18.7498 39.035 18.7498 39.4375V42.4796C18.7498 43.779 20.3205 44.4294 21.2392 43.5106L25.6142 39.1356C25.8884 38.8615 26.2588 38.7083 26.6453 38.7083H39.1665C40.7707 38.7083 42.0832 37.3958 42.0832 35.7917V18.2917C42.0832 16.6875 40.7707 15.375 39.1665 15.375ZM26.0415 28.0581C26.0415 28.3454 25.9569 28.6269 25.7965 28.8675L23.469 32.3354C23.1044 32.8808 22.3723 33.0398 21.8167 32.6912C21.2363 32.3281 21.0701 31.5581 21.4507 30.9894L23.1248 28.5H21.6665C20.8615 28.5 20.2082 27.8467 20.2082 27.0417V24.125C20.2082 23.32 20.8615 22.6667 21.6665 22.6667H24.5832C25.3882 22.6667 26.0415 23.32 26.0415 24.125V28.0581ZM34.7915 28.0581C34.7915 28.3454 34.7069 28.6269 34.5465 28.8675L32.219 32.3354C31.8544 32.8808 31.1223 33.0398 30.5667 32.6912C29.9863 32.3281 29.8201 31.5581 30.2007 30.9894L31.8748 28.5H30.4165C29.6115 28.5 28.9582 27.8467 28.9582 27.0417V24.125C28.9582 23.32 29.6115 22.6667 30.4165 22.6667H33.3332C34.1382 22.6667 34.7915 23.32 34.7915 24.125V28.0581Z" fill="white"/>
<rect x="35.5" y="29.5" width="13" height="13" rx="6.5" fill="#4E97FD"/>
<circle cx="42" cy="36" r="4.25" stroke="white" stroke-width="1.5"/>
<path d="M42 33.5V36.3333L44 37.5" stroke="white" stroke-width="1.5" stroke-linecap="round"/>
</svg>
