<svg width="56" height="56" viewBox="0 0 56 56" fill="none" xmlns="http://www.w3.org/2000/svg">
<rect y="0.5" width="56" height="55" rx="8" fill="#4E97FD"/>
<path d="M22.7531 42.9056C22.7531 41.4655 21.8689 40.2939 20.7821 40.2939H18.1117C17.0248 40.2939 16.1406 41.4655 16.1406 42.9056V43.3268H22.7531V42.9056Z" fill="white"/>
<path d="M28.0942 36.2904C29.2179 36.2904 30.1288 35.3795 30.1288 34.2558C30.1288 33.1321 29.2179 32.2212 28.0942 32.2212C26.9705 32.2212 26.0596 33.1321 26.0596 34.2558C26.0596 35.3795 26.9705 36.2904 28.0942 36.2904Z" fill="white"/>
<path d="M36.7416 39.0883C37.8653 39.0883 38.7763 38.1773 38.7763 37.0537C38.7763 35.93 37.8653 35.019 36.7416 35.019C35.618 35.019 34.707 35.93 34.707 37.0537C34.707 38.1773 35.618 39.0883 36.7416 39.0883Z" fill="white"/>
<path d="M29.4292 37.0957H26.7588C25.7363 37.0957 24.8931 38.1327 24.7969 39.4546H31.3911C31.2948 38.1327 30.4517 37.0957 29.4292 37.0957Z" fill="white"/>
<path d="M19.4467 39.0883C20.5704 39.0883 21.4813 38.1773 21.4813 37.0537C21.4813 35.93 20.5704 35.019 19.4467 35.019C18.323 35.019 17.4121 35.93 17.4121 37.0537C17.4121 38.1773 18.323 39.0883 19.4467 39.0883Z" fill="white"/>
<path d="M40.048 42.9056C40.048 41.4655 39.1639 40.2939 38.077 40.2939H35.4066C34.3197 40.2939 33.4355 41.4655 33.4355 42.9056V43.3268H40.048V42.9056Z" fill="white"/>
<path d="M15.6323 28.1519C15.492 28.1519 15.3779 28.2659 15.3779 28.4062V31.4581C15.3779 31.5983 15.492 31.7124 15.6323 31.7124H23.2621C23.4023 31.7124 23.5164 31.5983 23.5164 31.4581V28.4062C23.5164 28.2659 23.4023 28.1519 23.2621 28.1519H15.6323Z" fill="white"/>
<path d="M40.556 28.1519H32.9262C32.786 28.1519 32.6719 28.2659 32.6719 28.4062V31.4581C32.6719 31.5983 32.786 31.7124 32.9262 31.7124H40.556C40.6962 31.7124 40.8103 31.5983 40.8103 31.4581V28.4062C40.8103 28.2659 40.6962 28.1519 40.556 28.1519Z" fill="white"/>
<path d="M27.586 13.6675C21.6508 13.9344 16.9043 18.8459 16.9043 24.8458V27.1348H21.9908V24.8458C21.9908 21.6515 24.4577 19.0243 27.586 18.7648V13.6675Z" fill="white"/>
<path d="M39.2843 27.1348V24.8458C39.2843 18.8459 34.5377 13.9344 28.6025 13.6675V18.7648C31.7309 19.0243 34.1977 21.6515 34.1977 24.8458V27.1348H39.2843Z" fill="white"/>
</svg>
