<svg width="56" height="56" viewBox="0 0 56 56" fill="none" xmlns="http://www.w3.org/2000/svg">
<rect y="0.5" width="56" height="55" rx="8" fill="#4E97FD"/>
<g clip-path="url(#clip0_173_1695)">
<path d="M39.3385 25.7141C41.0782 25.7141 42.4885 24.3038 42.4885 22.5641C42.4885 20.8244 41.0782 19.4141 39.3385 19.4141C37.5988 19.4141 36.1885 20.8244 36.1885 22.5641C36.1885 24.3038 37.5988 25.7141 39.3385 25.7141Z" fill="white"/>
<path d="M35.825 34.9609L34.4782 39.9169C34.4782 39.9169 32.3866 42.9367 31.8063 43.8075C31.3702 44.4606 31.0811 45.1865 31.8063 45.7661C32.6043 46.4192 33.2567 45.5484 33.6921 45.1137C34.0547 44.6776 35.7123 42.3844 36.2198 41.8034C36.5096 41.4401 36.6545 41.0782 36.7994 40.7877C36.8722 40.57 37.7269 38.7451 37.9446 38.2369" fill="white"/>
<path d="M22.29 18C24.223 18 25.79 16.433 25.79 14.5C25.79 12.567 24.223 11 22.29 11C20.357 11 18.79 12.567 18.79 14.5C18.79 16.433 20.357 18 22.29 18Z" fill="white"/>
<path d="M29.3281 28.3097C28.675 28.0192 25.7728 26.2783 25.7728 26.2783C25.7728 26.2783 24.3203 22.6145 23.5223 20.8008C22.7964 19.1327 22.2161 18.6973 21.1283 18.6973C20.765 18.6973 19.9677 18.6973 19.5323 18.6973C18.8071 18.6973 18.5894 19.4225 18.5894 19.4225C18.0819 21.6716 16.6336 28.1648 16.488 29.0349C16.1975 30.486 16.9234 31.5024 17.5037 32.3718C18.0119 33.1698 24.6136 43.4717 25.483 44.6323C26.3538 45.7936 27.1518 46.3004 28.3852 45.6487C29.4009 45.0684 29.2553 43.7622 28.6757 42.8186C28.0954 41.8757 21.4209 31.0663 21.4209 31.0663L22.6543 25.8534C22.6543 25.8534 23.4523 27.3668 23.8149 28.0199C24.0326 28.3104 24.1775 28.4553 24.7578 28.7451C25.3381 29.1084 26.9341 29.9785 27.8049 30.4146C28.6029 30.7772 29.6179 30.9228 30.054 30.1962C30.4152 29.3975 29.9077 28.5274 29.3281 28.3097Z" fill="white"/>
<path d="M17.2013 30.54L15.2539 37.7815C15.2539 37.7815 12.4245 41.8436 11.6265 43.0049C11.0462 43.875 10.6115 44.8907 11.6265 45.6887C12.7871 46.5588 13.6579 45.3989 14.2382 44.7451C14.7464 44.1655 16.9948 41.1177 17.5758 40.3204C18.0112 39.8122 18.2282 39.3775 18.3738 38.9414C18.5187 38.6516 19.3713 36.2226 19.6611 35.4253" fill="white"/>
<path d="M45.2144 33.8955C44.7069 33.6771 42.0231 32.2995 42.0231 32.2995C42.0231 32.2995 41.0123 29.3126 40.432 28.0071C39.9238 26.7009 39.4891 26.4111 38.6918 26.4111C38.4013 26.4111 37.8931 26.4111 37.5305 26.4111C37.0223 26.4111 36.8781 26.9914 36.8781 26.9914C36.5148 28.5874 35.4935 32.8798 35.4214 33.4608C35.203 34.4758 35.7119 35.2745 36.1466 35.9269C36.5099 36.5072 41.4918 44.2464 42.0721 45.0444C42.7259 45.8424 43.3055 46.2785 44.1756 45.7703C44.9015 45.3342 44.8294 44.3913 44.394 43.7389C43.9586 43.0137 38.9767 34.984 38.9767 34.984L39.7747 31.9782C39.7747 31.9782 40.3557 33.0982 40.6455 33.5329C40.7911 33.7506 40.936 33.8234 41.2993 34.0411C41.734 34.2588 43.4742 35.1296 44.1273 35.4194C44.7083 35.7099 45.4335 35.7827 45.7233 35.2745C46.0852 34.7656 45.6498 34.1132 45.2144 33.8955Z" fill="white"/>
<path d="M15.7967 28.9199C15.9465 28.0218 17.3948 21.5314 17.9058 19.2683L17.9114 19.2445L17.9184 19.2207C17.966 19.0618 18.0668 18.849 18.2264 18.646C18.1697 18.6264 18.1158 18.6005 18.0577 18.5879L15.649 17.8809C14.7383 17.6527 13.808 18.2106 13.479 19.199L11.1823 26.8605C10.9639 27.459 11.0038 28.0953 11.2908 28.6056C11.5456 29.0592 11.9656 29.3651 12.4507 29.4617L15.4684 30.1638C15.5643 30.1848 15.6616 30.1897 15.7589 30.1953C15.705 29.8019 15.7043 29.3805 15.7967 28.9199Z" fill="white"/>
<path d="M34.7305 33.3404C34.8012 32.8539 35.2366 30.9653 35.7966 28.5573C35.9562 27.8727 36.099 27.2588 36.1977 26.822C36.2432 26.6386 36.3314 26.4517 36.4539 26.283C36.2838 26.171 36.0955 26.073 35.8799 26.0016C35.8673 25.9988 35.5936 25.9288 34.9216 25.7272C34.6584 25.6523 34.4057 25.6138 34.1691 25.6138C33.5524 25.6138 32.7089 25.8735 32.1818 27.1412C32.0215 27.5801 31.7492 28.4838 31.4601 29.4421C31.2312 30.1995 31.003 30.9576 30.849 31.4175C30.5865 32.1623 30.5907 32.8028 30.8623 33.3208C31.0324 33.6456 31.3971 34.0761 32.1979 34.2945C32.5598 34.3743 32.8783 34.4835 33.1345 34.571C33.3123 34.6312 33.4621 34.6809 33.5699 34.7082C33.7876 34.7656 33.9983 34.795 34.1971 34.795C34.3336 34.795 34.5387 34.774 34.7634 34.6984C34.6605 34.291 34.6283 33.8395 34.7305 33.3404Z" fill="white"/>
</g>
<defs>
<clipPath id="clip0_173_1695">
<rect width="35" height="35" fill="white" transform="translate(11 11)"/>
</clipPath>
</defs>
</svg>
