<svg width="30" height="30" viewBox="0 0 30 30" fill="none" xmlns="http://www.w3.org/2000/svg">
<path d="M15 21.0938C17.5888 21.0938 19.6875 18.9951 19.6875 16.4062C19.6875 13.8174 17.5888 11.7188 15 11.7188C12.4112 11.7188 10.3125 13.8174 10.3125 16.4062C10.3125 18.9951 12.4112 21.0938 15 21.0938Z" stroke="#56585A" stroke-width="2" stroke-linecap="round" stroke-linejoin="round"/>
<path d="M22.9688 13.5938C24.0606 13.5919 25.1378 13.8453 26.1145 14.3336C27.0911 14.8219 27.9401 15.5317 28.5938 16.4063" stroke="#56585A" stroke-width="2" stroke-linecap="round" stroke-linejoin="round"/>
<path d="M1.40625 16.4063C2.05992 15.5317 2.90892 14.8219 3.88554 14.3336C4.86215 13.8453 5.93936 13.5919 7.03125 13.5938" stroke="#56585A" stroke-width="2" stroke-linecap="round" stroke-linejoin="round"/>
<path d="M8.25 25.3124C8.86737 24.0481 9.82744 22.9825 11.0208 22.2372C12.2142 21.4919 13.593 21.0967 15 21.0967C16.407 21.0967 17.7858 21.4919 18.9792 22.2372C20.1726 22.9825 21.1326 24.0481 21.75 25.3124" stroke="#56585A" stroke-width="2" stroke-linecap="round" stroke-linejoin="round"/>
<path d="M7.03115 13.5937C6.3194 13.5945 5.62215 13.3926 5.02085 13.0118C4.41956 12.631 3.93907 12.0869 3.63551 11.4431C3.33195 10.7993 3.21787 10.0825 3.3066 9.37628C3.39532 8.67008 3.68319 8.00372 4.13656 7.45505C4.58994 6.90638 5.19009 6.49807 5.8669 6.27782C6.54372 6.05757 7.26923 6.03448 7.95868 6.21124C8.64813 6.38801 9.27303 6.75733 9.76038 7.27606C10.2477 7.79479 10.5774 8.4415 10.7108 9.14062" stroke="#56585A" stroke-width="2" stroke-linecap="round" stroke-linejoin="round"/>
<path d="M19.2891 9.14062C19.4225 8.4415 19.7522 7.79479 20.2395 7.27606C20.7269 6.75733 21.3518 6.38801 22.0412 6.21124C22.7307 6.03448 23.4562 6.05757 24.133 6.27782C24.8098 6.49807 25.41 6.90638 25.8633 7.45505C26.3167 8.00372 26.6046 8.67008 26.6933 9.37628C26.782 10.0825 26.6679 10.7993 26.3644 11.4431C26.0608 12.0869 25.5803 12.631 24.979 13.0118C24.3778 13.3926 23.6805 13.5945 22.9687 13.5937" stroke="#56585A" stroke-width="2" stroke-linecap="round" stroke-linejoin="round"/>
</svg>
