<svg width="30" height="30" viewBox="0 0 30 30" fill="none" xmlns="http://www.w3.org/2000/svg">
<path d="M26.25 20.7772V9.22256C26.2491 9.05565 26.2042 8.89194 26.1199 8.74792C26.0355 8.6039 25.9147 8.48467 25.7695 8.40225L15.457 2.60147C15.3181 2.52124 15.1605 2.479 15 2.479C14.8395 2.479 14.6819 2.52124 14.543 2.60147L4.23047 8.40225C4.08533 8.48467 3.96449 8.6039 3.88014 8.74792C3.79579 8.89194 3.7509 9.05565 3.75 9.22256V20.7772C3.7509 20.9441 3.79579 21.1079 3.88014 21.2519C3.96449 21.3959 4.08533 21.5151 4.23047 21.5976L14.543 27.3983C14.6819 27.4786 14.8395 27.5208 15 27.5208C15.1605 27.5208 15.3181 27.4786 15.457 27.3983L25.7695 21.5976C25.9147 21.5151 26.0355 21.3959 26.1199 21.2519C26.2042 21.1079 26.2491 20.9441 26.25 20.7772V20.7772Z" stroke="#6C6C6C" stroke-width="2" stroke-linecap="round" stroke-linejoin="round"/>
<path d="M20.7422 17.8711V11.7773L9.375 5.50781" stroke="#6C6C6C" stroke-width="2" stroke-linecap="round" stroke-linejoin="round"/>
<path d="M26.1211 8.74219L15.1055 15L3.87891 8.74219" stroke="#6C6C6C" stroke-width="2" stroke-linecap="round" stroke-linejoin="round"/>
<path d="M15.1055 15L15 27.5156" stroke="#6C6C6C" stroke-width="2" stroke-linecap="round" stroke-linejoin="round"/>
</svg>
