<svg width="219" height="25" viewBox="0 0 219 25" fill="none" xmlns="http://www.w3.org/2000/svg">
<path d="M8.89844 10.7422L13 14.8438L17.1016 10.7422" stroke="black" stroke-width="2" stroke-linecap="round" stroke-linejoin="round"/>
<path d="M13 3.90625V14.8438" stroke="black" stroke-width="2" stroke-linecap="round" stroke-linejoin="round"/>
<path d="M21.5938 14.8438V20.3125C21.5938 20.5197 21.5114 20.7184 21.3649 20.8649C21.2184 21.0114 21.0197 21.0938 20.8125 21.0938H5.1875C4.9803 21.0938 4.78159 21.0114 4.63507 20.8649C4.48856 20.7184 4.40625 20.5197 4.40625 20.3125V14.8438" stroke="black" stroke-width="2" stroke-linecap="round" stroke-linejoin="round"/>
<path d="M43.892 17.5V6.22H47.7C49.524 6.22 50.932 6.70533 51.924 7.676C52.916 8.636 53.412 10.028 53.412 11.852C53.412 13.676 52.916 15.0733 51.924 16.044C50.932 17.0147 49.524 17.5 47.7 17.5H43.892ZM45.204 16.38H47.604C50.548 16.38 52.02 14.8707 52.02 11.852C52.02 8.844 50.548 7.34 47.604 7.34H45.204V16.38ZM58.823 17.644C58.0657 17.644 57.4097 17.4787 56.855 17.148C56.3003 16.8173 55.8683 16.3533 55.559 15.756C55.2603 15.148 55.111 14.4333 55.111 13.612C55.111 12.7907 55.2603 12.0813 55.559 11.484C55.8683 10.876 56.3003 10.4067 56.855 10.076C57.4097 9.74533 58.0657 9.58 58.823 9.58C59.5697 9.58 60.2203 9.74533 60.775 10.076C61.3403 10.4067 61.7723 10.876 62.071 11.484C62.3803 12.0813 62.535 12.7907 62.535 13.612C62.535 14.4333 62.3803 15.148 62.071 15.756C61.7723 16.3533 61.3403 16.8173 60.775 17.148C60.2203 17.4787 59.5697 17.644 58.823 17.644ZM58.823 16.604C59.5483 16.604 60.1297 16.348 60.567 15.836C61.0043 15.3133 61.223 14.572 61.223 13.612C61.223 12.6413 61.0043 11.9 60.567 11.388C60.1297 10.876 59.5483 10.62 58.823 10.62C58.087 10.62 57.5003 10.876 57.063 11.388C56.6363 11.9 56.423 12.6413 56.423 13.612C56.423 14.572 56.6363 15.3133 57.063 15.836C57.5003 16.348 58.087 16.604 58.823 16.604ZM66.4363 17.5L63.5403 9.724H64.9003L67.0923 15.98L69.3643 9.724H70.4683L72.7083 15.996L74.9323 9.724H76.2283L73.3163 17.5H72.0843L69.8923 11.468L67.6843 17.5H66.4363ZM77.8254 17.5V9.724H79.0894V11.052C79.3454 10.5613 79.708 10.1933 80.1774 9.948C80.6467 9.70267 81.1747 9.58 81.7614 9.58C83.6067 9.58 84.5294 10.604 84.5294 12.652V17.5H83.2334V12.732C83.2334 12.0067 83.0894 11.4787 82.8014 11.148C82.524 10.8067 82.076 10.636 81.4574 10.636C80.7427 10.636 80.172 10.86 79.7454 11.308C79.3294 11.7453 79.1214 12.332 79.1214 13.068V17.5H77.8254ZM89.3031 17.644C88.5138 17.644 87.9165 17.4147 87.5111 16.956C87.1165 16.4867 86.9191 15.8093 86.9191 14.924V6.22H88.2151V14.828C88.2151 15.9693 88.6685 16.54 89.5751 16.54C89.8418 16.54 90.0818 16.508 90.2951 16.444L90.2631 17.532C89.9325 17.6067 89.6125 17.644 89.3031 17.644ZM94.8074 17.644C94.05 17.644 93.394 17.4787 92.8394 17.148C92.2847 16.8173 91.8527 16.3533 91.5434 15.756C91.2447 15.148 91.0954 14.4333 91.0954 13.612C91.0954 12.7907 91.2447 12.0813 91.5434 11.484C91.8527 10.876 92.2847 10.4067 92.8394 10.076C93.394 9.74533 94.05 9.58 94.8074 9.58C95.554 9.58 96.2047 9.74533 96.7594 10.076C97.3247 10.4067 97.7567 10.876 98.0554 11.484C98.3647 12.0813 98.5194 12.7907 98.5194 13.612C98.5194 14.4333 98.3647 15.148 98.0554 15.756C97.7567 16.3533 97.3247 16.8173 96.7594 17.148C96.2047 17.4787 95.554 17.644 94.8074 17.644ZM94.8074 16.604C95.5327 16.604 96.114 16.348 96.5514 15.836C96.9887 15.3133 97.2074 14.572 97.2074 13.612C97.2074 12.6413 96.9887 11.9 96.5514 11.388C96.114 10.876 95.5327 10.62 94.8074 10.62C94.0714 10.62 93.4847 10.876 93.0474 11.388C92.6207 11.9 92.4074 12.6413 92.4074 13.612C92.4074 14.572 92.6207 15.3133 93.0474 15.836C93.4847 16.348 94.0714 16.604 94.8074 16.604ZM102.914 17.644C102.381 17.644 101.901 17.5427 101.474 17.34C101.058 17.1267 100.727 16.8387 100.482 16.476C100.237 16.1133 100.114 15.708 100.114 15.26C100.114 14.6947 100.258 14.2467 100.546 13.916C100.845 13.5853 101.33 13.3507 102.002 13.212C102.685 13.0627 103.613 12.988 104.786 12.988H105.298V12.492C105.298 11.8307 105.159 11.356 104.882 11.068C104.615 10.7693 104.183 10.62 103.586 10.62C103.117 10.62 102.663 10.6893 102.226 10.828C101.789 10.956 101.341 11.1693 100.882 11.468L100.434 10.524C100.839 10.236 101.33 10.0067 101.906 9.836C102.493 9.66533 103.053 9.58 103.586 9.58C104.589 9.58 105.33 9.82533 105.81 10.316C106.301 10.8067 106.546 11.5693 106.546 12.604V17.5H105.33V16.156C105.127 16.6147 104.813 16.9773 104.386 17.244C103.97 17.5107 103.479 17.644 102.914 17.644ZM103.122 16.668C103.762 16.668 104.285 16.4493 104.69 16.012C105.095 15.564 105.298 14.9987 105.298 14.316V13.836H104.802C103.938 13.836 103.255 13.8787 102.754 13.964C102.263 14.0387 101.917 14.1773 101.714 14.38C101.522 14.572 101.426 14.8387 101.426 15.18C101.426 15.6173 101.575 15.9747 101.874 16.252C102.183 16.5293 102.599 16.668 103.122 16.668ZM111.91 17.644C111.217 17.644 110.609 17.4787 110.086 17.148C109.574 16.8173 109.174 16.3533 108.886 15.756C108.609 15.148 108.47 14.4333 108.47 13.612C108.47 12.78 108.609 12.0653 108.886 11.468C109.174 10.86 109.574 10.396 110.086 10.076C110.609 9.74533 111.217 9.58 111.91 9.58C112.518 9.58 113.052 9.71333 113.51 9.98C113.98 10.2467 114.326 10.6147 114.55 11.084V6.22H115.846V17.5H114.582V16.076C114.358 16.5667 114.012 16.9507 113.542 17.228C113.073 17.5053 112.529 17.644 111.91 17.644ZM112.182 16.604C112.908 16.604 113.489 16.348 113.926 15.836C114.364 15.3133 114.582 14.572 114.582 13.612C114.582 12.6413 114.364 11.9 113.926 11.388C113.489 10.876 112.908 10.62 112.182 10.62C111.446 10.62 110.86 10.876 110.422 11.388C109.996 11.9 109.782 12.6413 109.782 13.612C109.782 14.572 109.996 15.3133 110.422 15.836C110.86 16.348 111.446 16.604 112.182 16.604ZM125.62 17.644C124.863 17.644 124.207 17.4787 123.652 17.148C123.097 16.8173 122.665 16.3533 122.356 15.756C122.057 15.148 121.908 14.4333 121.908 13.612C121.908 12.7907 122.057 12.0813 122.356 11.484C122.665 10.876 123.097 10.4067 123.652 10.076C124.207 9.74533 124.863 9.58 125.62 9.58C126.367 9.58 127.017 9.74533 127.572 10.076C128.137 10.4067 128.569 10.876 128.868 11.484C129.177 12.0813 129.332 12.7907 129.332 13.612C129.332 14.4333 129.177 15.148 128.868 15.756C128.569 16.3533 128.137 16.8173 127.572 17.148C127.017 17.4787 126.367 17.644 125.62 17.644ZM125.62 16.604C126.345 16.604 126.927 16.348 127.364 15.836C127.801 15.3133 128.02 14.572 128.02 13.612C128.02 12.6413 127.801 11.9 127.364 11.388C126.927 10.876 126.345 10.62 125.62 10.62C124.884 10.62 124.297 10.876 123.86 11.388C123.433 11.9 123.22 12.6413 123.22 13.612C123.22 14.572 123.433 15.3133 123.86 15.836C124.297 16.348 124.884 16.604 125.62 16.604ZM133.457 17.5L130.113 9.724H131.521L134.097 16.028L136.705 9.724H138.033L134.673 17.5H133.457ZM142.798 17.644C141.571 17.644 140.601 17.2867 139.886 16.572C139.171 15.8467 138.814 14.8653 138.814 13.628C138.814 12.828 138.974 12.124 139.294 11.516C139.614 10.8973 140.051 10.4227 140.606 10.092C141.171 9.75067 141.822 9.58 142.558 9.58C143.614 9.58 144.441 9.92133 145.038 10.604C145.635 11.276 145.934 12.204 145.934 13.388V13.884H140.078C140.121 14.7693 140.377 15.4467 140.846 15.916C141.315 16.3747 141.966 16.604 142.798 16.604C143.267 16.604 143.715 16.5347 144.142 16.396C144.569 16.2467 144.974 16.0067 145.358 15.676L145.806 16.588C145.454 16.9187 145.006 17.18 144.462 17.372C143.918 17.5533 143.363 17.644 142.798 17.644ZM142.59 10.54C141.854 10.54 141.273 10.7693 140.846 11.228C140.419 11.6867 140.169 12.2893 140.094 13.036H144.814C144.782 12.2467 144.574 11.6333 144.19 11.196C143.817 10.7587 143.283 10.54 142.59 10.54ZM147.81 17.5V9.724H149.074V11.116C149.49 10.1773 150.343 9.66 151.634 9.564L152.098 9.516L152.194 10.636L151.378 10.732C150.642 10.796 150.082 11.0307 149.698 11.436C149.314 11.8307 149.122 12.3747 149.122 13.068V17.5H147.81ZM155.914 17.644C155.381 17.644 154.901 17.5427 154.474 17.34C154.058 17.1267 153.727 16.8387 153.482 16.476C153.237 16.1133 153.114 15.708 153.114 15.26C153.114 14.6947 153.258 14.2467 153.546 13.916C153.845 13.5853 154.33 13.3507 155.002 13.212C155.685 13.0627 156.613 12.988 157.786 12.988H158.298V12.492C158.298 11.8307 158.159 11.356 157.882 11.068C157.615 10.7693 157.183 10.62 156.586 10.62C156.117 10.62 155.663 10.6893 155.226 10.828C154.789 10.956 154.341 11.1693 153.882 11.468L153.434 10.524C153.839 10.236 154.33 10.0067 154.906 9.836C155.493 9.66533 156.053 9.58 156.586 9.58C157.589 9.58 158.33 9.82533 158.81 10.316C159.301 10.8067 159.546 11.5693 159.546 12.604V17.5H158.33V16.156C158.127 16.6147 157.813 16.9773 157.386 17.244C156.97 17.5107 156.479 17.644 155.914 17.644ZM156.122 16.668C156.762 16.668 157.285 16.4493 157.69 16.012C158.095 15.564 158.298 14.9987 158.298 14.316V13.836H157.802C156.938 13.836 156.255 13.8787 155.754 13.964C155.263 14.0387 154.917 14.1773 154.714 14.38C154.522 14.572 154.426 14.8387 154.426 15.18C154.426 15.6173 154.575 15.9747 154.874 16.252C155.183 16.5293 155.599 16.668 156.122 16.668ZM164.334 17.644C163.545 17.644 162.948 17.4147 162.542 16.956C162.148 16.4867 161.95 15.8093 161.95 14.924V6.22H163.246V14.828C163.246 15.9693 163.7 16.54 164.606 16.54C164.873 16.54 165.113 16.508 165.326 16.444L165.294 17.532C164.964 17.6067 164.644 17.644 164.334 17.644ZM169.069 17.644C168.279 17.644 167.682 17.4147 167.277 16.956C166.882 16.4867 166.685 15.8093 166.685 14.924V6.22H167.981V14.828C167.981 15.9693 168.434 16.54 169.341 16.54C169.607 16.54 169.847 16.508 170.061 16.444L170.029 17.532C169.698 17.6067 169.378 17.644 169.069 17.644ZM175.529 17.5V9.724H176.793V11.116C177.209 10.1773 178.062 9.66 179.353 9.564L179.817 9.516L179.913 10.636L179.097 10.732C178.361 10.796 177.801 11.0307 177.417 11.436C177.033 11.8307 176.841 12.3747 176.841 13.068V17.5H175.529ZM184.673 17.644C183.446 17.644 182.476 17.2867 181.761 16.572C181.046 15.8467 180.689 14.8653 180.689 13.628C180.689 12.828 180.849 12.124 181.169 11.516C181.489 10.8973 181.926 10.4227 182.481 10.092C183.046 9.75067 183.697 9.58 184.433 9.58C185.489 9.58 186.316 9.92133 186.913 10.604C187.51 11.276 187.809 12.204 187.809 13.388V13.884H181.953C181.996 14.7693 182.252 15.4467 182.721 15.916C183.19 16.3747 183.841 16.604 184.673 16.604C185.142 16.604 185.59 16.5347 186.017 16.396C186.444 16.2467 186.849 16.0067 187.233 15.676L187.681 16.588C187.329 16.9187 186.881 17.18 186.337 17.372C185.793 17.5533 185.238 17.644 184.673 17.644ZM184.465 10.54C183.729 10.54 183.148 10.7693 182.721 11.228C182.294 11.6867 182.044 12.2893 181.969 13.036H186.689C186.657 12.2467 186.449 11.6333 186.065 11.196C185.692 10.7587 185.158 10.54 184.465 10.54ZM189.685 20.38V9.724H190.949V11.116C191.183 10.636 191.53 10.2627 191.989 9.996C192.458 9.71867 193.002 9.58 193.621 9.58C194.314 9.58 194.917 9.74533 195.429 10.076C195.951 10.396 196.351 10.86 196.629 11.468C196.917 12.0653 197.061 12.78 197.061 13.612C197.061 14.4333 196.917 15.148 196.629 15.756C196.351 16.3533 195.951 16.8173 195.429 17.148C194.917 17.4787 194.314 17.644 193.621 17.644C193.023 17.644 192.49 17.5107 192.021 17.244C191.551 16.9773 191.205 16.6093 190.981 16.14V20.38H189.685ZM193.349 16.604C194.074 16.604 194.655 16.348 195.093 15.836C195.53 15.3133 195.749 14.572 195.749 13.612C195.749 12.6413 195.53 11.9 195.093 11.388C194.655 10.876 194.074 10.62 193.349 10.62C192.623 10.62 192.042 10.876 191.605 11.388C191.167 11.9 190.949 12.6413 190.949 13.612C190.949 14.572 191.167 15.3133 191.605 15.836C192.042 16.348 192.623 16.604 193.349 16.604ZM202.245 17.644C201.488 17.644 200.832 17.4787 200.277 17.148C199.722 16.8173 199.29 16.3533 198.981 15.756C198.682 15.148 198.533 14.4333 198.533 13.612C198.533 12.7907 198.682 12.0813 198.981 11.484C199.29 10.876 199.722 10.4067 200.277 10.076C200.832 9.74533 201.488 9.58 202.245 9.58C202.992 9.58 203.642 9.74533 204.197 10.076C204.762 10.4067 205.194 10.876 205.493 11.484C205.802 12.0813 205.957 12.7907 205.957 13.612C205.957 14.4333 205.802 15.148 205.493 15.756C205.194 16.3533 204.762 16.8173 204.197 17.148C203.642 17.4787 202.992 17.644 202.245 17.644ZM202.245 16.604C202.97 16.604 203.552 16.348 203.989 15.836C204.426 15.3133 204.645 14.572 204.645 13.612C204.645 12.6413 204.426 11.9 203.989 11.388C203.552 10.876 202.97 10.62 202.245 10.62C201.509 10.62 200.922 10.876 200.485 11.388C200.058 11.9 199.845 12.6413 199.845 13.612C199.845 14.572 200.058 15.3133 200.485 15.836C200.922 16.348 201.509 16.604 202.245 16.604ZM207.904 17.5V9.724H209.168V11.116C209.584 10.1773 210.437 9.66 211.728 9.564L212.192 9.516L212.288 10.636L211.472 10.732C210.736 10.796 210.176 11.0307 209.792 11.436C209.408 11.8307 209.216 12.3747 209.216 13.068V17.5H207.904ZM217.18 17.644C216.262 17.644 215.574 17.404 215.116 16.924C214.657 16.4333 214.428 15.7293 214.428 14.812V10.732H212.908V9.724H214.428V7.34H215.724V9.724H218.188V10.732H215.724V14.684C215.724 15.292 215.852 15.756 216.108 16.076C216.364 16.3853 216.78 16.54 217.356 16.54C217.526 16.54 217.697 16.5187 217.868 16.476C218.038 16.4333 218.193 16.3907 218.332 16.348L218.556 17.34C218.417 17.4147 218.214 17.484 217.948 17.548C217.681 17.612 217.425 17.644 217.18 17.644Z" fill="#56585A"/>
</svg>
