<svg width="269" height="58" viewBox="0 0 269 58" fill="none" xmlns="http://www.w3.org/2000/svg">
<circle cx="6.5" cy="8" r="5.5" stroke="#88AAF3" stroke-width="2"/>
<path d="M27.596 12.108C26.812 12.108 26.128 11.932 25.544 11.58C24.968 11.22 24.52 10.716 24.2 10.068C23.888 9.42 23.732 8.652 23.732 7.764C23.732 6.876 23.888 6.108 24.2 5.46C24.512 4.812 24.956 4.312 25.532 3.96C26.116 3.608 26.804 3.432 27.596 3.432C28.396 3.432 29.084 3.608 29.66 3.96C30.244 4.312 30.692 4.812 31.004 5.46C31.324 6.1 31.484 6.864 31.484 7.752C31.484 8.64 31.324 9.412 31.004 10.068C30.684 10.716 30.232 11.22 29.648 11.58C29.072 11.932 28.388 12.108 27.596 12.108ZM27.596 11.232C28.5 11.232 29.2 10.928 29.696 10.32C30.192 9.712 30.44 8.86 30.44 7.764C30.44 6.668 30.192 5.82 29.696 5.22C29.2 4.612 28.5 4.308 27.596 4.308C26.708 4.308 26.016 4.612 25.52 5.22C25.024 5.82 24.776 6.668 24.776 7.764C24.776 8.852 25.024 9.704 25.52 10.32C26.016 10.928 26.708 11.232 27.596 11.232ZM33.1112 12V6.168H34.0592V7.212C34.3712 6.508 35.0112 6.12 35.9792 6.048L36.3272 6.012L36.3992 6.852L35.7872 6.924C35.2352 6.972 34.8152 7.148 34.5272 7.452C34.2392 7.748 34.0952 8.156 34.0952 8.676V12H33.1112ZM39.5617 12.108C39.0417 12.108 38.5857 11.984 38.1937 11.736C37.8097 11.488 37.5097 11.14 37.2937 10.692C37.0857 10.236 36.9817 9.7 36.9817 9.084C36.9817 8.46 37.0857 7.924 37.2937 7.476C37.5097 7.02 37.8097 6.672 38.1937 6.432C38.5857 6.184 39.0417 6.06 39.5617 6.06C40.0177 6.06 40.4177 6.16 40.7617 6.36C41.1137 6.56 41.3737 6.836 41.5417 7.188V3.54H42.5137V12H41.5657V10.932C41.3977 11.3 41.1377 11.588 40.7857 11.796C40.4337 12.004 40.0257 12.108 39.5617 12.108ZM39.7657 11.328C40.3097 11.328 40.7457 11.136 41.0737 10.752C41.4017 10.36 41.5657 9.804 41.5657 9.084C41.5657 8.356 41.4017 7.8 41.0737 7.416C40.7457 7.032 40.3097 6.84 39.7657 6.84C39.2137 6.84 38.7737 7.032 38.4457 7.416C38.1257 7.8 37.9657 8.356 37.9657 9.084C37.9657 9.804 38.1257 10.36 38.4457 10.752C38.7737 11.136 39.2137 11.328 39.7657 11.328ZM46.9658 12.108C46.0458 12.108 45.3178 11.84 44.7818 11.304C44.2458 10.76 43.9778 10.024 43.9778 9.096C43.9778 8.496 44.0978 7.968 44.3378 7.512C44.5778 7.048 44.9058 6.692 45.3218 6.444C45.7458 6.188 46.2338 6.06 46.7858 6.06C47.5778 6.06 48.1978 6.316 48.6458 6.828C49.0938 7.332 49.3178 8.028 49.3178 8.916V9.288H44.9258C44.9578 9.952 45.1498 10.46 45.5018 10.812C45.8538 11.156 46.3418 11.328 46.9658 11.328C47.3178 11.328 47.6538 11.276 47.9738 11.172C48.2938 11.06 48.5978 10.88 48.8858 10.632L49.2218 11.316C48.9578 11.564 48.6218 11.76 48.2138 11.904C47.8058 12.04 47.3898 12.108 46.9658 12.108ZM46.8098 6.78C46.2578 6.78 45.8218 6.952 45.5018 7.296C45.1818 7.64 44.9938 8.092 44.9378 8.652H48.4778C48.4538 8.06 48.2978 7.6 48.0098 7.272C47.7298 6.944 47.3298 6.78 46.8098 6.78ZM50.7245 12V6.168H51.6725V7.212C51.9845 6.508 52.6245 6.12 53.5925 6.048L53.9405 6.012L54.0125 6.852L53.4005 6.924C52.8485 6.972 52.4285 7.148 52.1405 7.452C51.8525 7.748 51.7085 8.156 51.7085 8.676V12H50.7245ZM61.8993 12.108C61.0673 12.108 60.3553 11.932 59.7633 11.58C59.1713 11.228 58.7153 10.728 58.3953 10.08C58.0833 9.432 57.9273 8.66 57.9273 7.764C57.9273 6.876 58.0833 6.108 58.3953 5.46C58.7153 4.812 59.1713 4.312 59.7633 3.96C60.3553 3.608 61.0673 3.432 61.8993 3.432C62.4833 3.432 63.0193 3.524 63.5073 3.708C64.0033 3.892 64.4233 4.16 64.7673 4.512L64.3833 5.316C64.0153 4.972 63.6313 4.724 63.2313 4.572C62.8393 4.412 62.4033 4.332 61.9233 4.332C60.9713 4.332 60.2433 4.632 59.7393 5.232C59.2353 5.832 58.9833 6.676 58.9833 7.764C58.9833 8.86 59.2353 9.708 59.7393 10.308C60.2433 10.908 60.9713 11.208 61.9233 11.208C62.4033 11.208 62.8393 11.132 63.2313 10.98C63.6313 10.82 64.0153 10.568 64.3833 10.224L64.7673 11.028C64.4233 11.372 64.0033 11.64 63.5073 11.832C63.0193 12.016 62.4833 12.108 61.8993 12.108ZM68.1837 12.108C67.6157 12.108 67.1237 11.984 66.7077 11.736C66.2917 11.488 65.9677 11.14 65.7357 10.692C65.5117 10.236 65.3997 9.7 65.3997 9.084C65.3997 8.468 65.5117 7.936 65.7357 7.488C65.9677 7.032 66.2917 6.68 66.7077 6.432C67.1237 6.184 67.6157 6.06 68.1837 6.06C68.7437 6.06 69.2317 6.184 69.6477 6.432C70.0717 6.68 70.3957 7.032 70.6197 7.488C70.8517 7.936 70.9677 8.468 70.9677 9.084C70.9677 9.7 70.8517 10.236 70.6197 10.692C70.3957 11.14 70.0717 11.488 69.6477 11.736C69.2317 11.984 68.7437 12.108 68.1837 12.108ZM68.1837 11.328C68.7277 11.328 69.1637 11.136 69.4917 10.752C69.8197 10.36 69.9837 9.804 69.9837 9.084C69.9837 8.356 69.8197 7.8 69.4917 7.416C69.1637 7.032 68.7277 6.84 68.1837 6.84C67.6317 6.84 67.1917 7.032 66.8637 7.416C66.5437 7.8 66.3837 8.356 66.3837 9.084C66.3837 9.804 66.5437 10.36 66.8637 10.752C67.1917 11.136 67.6317 11.328 68.1837 11.328ZM72.4516 12V6.168H73.3996V7.152C73.5756 6.8 73.8196 6.532 74.1316 6.348C74.4436 6.156 74.8076 6.06 75.2236 6.06C76.1356 6.06 76.7196 6.456 76.9756 7.248C77.1516 6.88 77.4116 6.592 77.7556 6.384C78.0996 6.168 78.4956 6.06 78.9436 6.06C80.2396 6.06 80.8876 6.828 80.8876 8.364V12H79.9156V8.412C79.9156 7.876 79.8196 7.484 79.6276 7.236C79.4436 6.98 79.1356 6.852 78.7036 6.852C78.2316 6.852 77.8556 7.02 77.5756 7.356C77.2956 7.692 77.1556 8.14 77.1556 8.7V12H76.1836V8.412C76.1836 7.876 76.0876 7.484 75.8956 7.236C75.7116 6.98 75.4036 6.852 74.9716 6.852C74.4916 6.852 74.1116 7.02 73.8316 7.356C73.5596 7.692 73.4236 8.14 73.4236 8.7V12H72.4516ZM82.705 14.16V6.168H83.653V7.212C83.829 6.852 84.089 6.572 84.433 6.372C84.785 6.164 85.193 6.06 85.657 6.06C86.177 6.06 86.629 6.184 87.013 6.432C87.405 6.672 87.705 7.02 87.913 7.476C88.129 7.924 88.237 8.46 88.237 9.084C88.237 9.7 88.129 10.236 87.913 10.692C87.705 11.14 87.405 11.488 87.013 11.736C86.629 11.984 86.177 12.108 85.657 12.108C85.209 12.108 84.809 12.008 84.457 11.808C84.105 11.608 83.845 11.332 83.677 10.98V14.16H82.705ZM85.453 11.328C85.997 11.328 86.433 11.136 86.761 10.752C87.089 10.36 87.253 9.804 87.253 9.084C87.253 8.356 87.089 7.8 86.761 7.416C86.433 7.032 85.997 6.84 85.453 6.84C84.909 6.84 84.473 7.032 84.145 7.416C83.817 7.8 83.653 8.356 83.653 9.084C83.653 9.804 83.817 10.36 84.145 10.752C84.473 11.136 84.909 11.328 85.453 11.328ZM91.4891 12.108C90.8971 12.108 90.4491 11.936 90.1451 11.592C89.8491 11.24 89.7011 10.732 89.7011 10.068V3.54H90.6731V9.996C90.6731 10.852 91.0131 11.28 91.6931 11.28C91.8931 11.28 92.0731 11.256 92.2331 11.208L92.2091 12.024C91.9611 12.08 91.7211 12.108 91.4891 12.108ZM95.8213 12.108C94.9013 12.108 94.1733 11.84 93.6373 11.304C93.1013 10.76 92.8333 10.024 92.8333 9.096C92.8333 8.496 92.9533 7.968 93.1933 7.512C93.4333 7.048 93.7613 6.692 94.1773 6.444C94.6013 6.188 95.0893 6.06 95.6413 6.06C96.4333 6.06 97.0533 6.316 97.5013 6.828C97.9493 7.332 98.1733 8.028 98.1733 8.916V9.288H93.7812C93.8133 9.952 94.0053 10.46 94.3573 10.812C94.7093 11.156 95.1973 11.328 95.8213 11.328C96.1733 11.328 96.5093 11.276 96.8293 11.172C97.1493 11.06 97.4533 10.88 97.7413 10.632L98.0773 11.316C97.8133 11.564 97.4773 11.76 97.0693 11.904C96.6613 12.04 96.2453 12.108 95.8213 12.108ZM95.6653 6.78C95.1133 6.78 94.6773 6.952 94.3573 7.296C94.0373 7.64 93.8493 8.092 93.7933 8.652H97.3333C97.3093 8.06 97.1533 7.6 96.8653 7.272C96.5853 6.944 96.1853 6.78 95.6653 6.78ZM101.92 12.108C101.232 12.108 100.716 11.928 100.372 11.568C100.028 11.2 99.856 10.672 99.856 9.984V6.924H98.716V6.168H99.856V4.38H100.828V6.168H102.676V6.924H100.828V9.888C100.828 10.344 100.924 10.692 101.116 10.932C101.308 11.164 101.62 11.28 102.052 11.28C102.18 11.28 102.308 11.264 102.436 11.232C102.564 11.2 102.68 11.168 102.784 11.136L102.952 11.88C102.848 11.936 102.696 11.988 102.496 12.036C102.296 12.084 102.104 12.108 101.92 12.108ZM106.345 12.108C105.425 12.108 104.697 11.84 104.161 11.304C103.625 10.76 103.357 10.024 103.357 9.096C103.357 8.496 103.477 7.968 103.717 7.512C103.957 7.048 104.285 6.692 104.701 6.444C105.125 6.188 105.613 6.06 106.165 6.06C106.957 6.06 107.577 6.316 108.025 6.828C108.473 7.332 108.697 8.028 108.697 8.916V9.288H104.305C104.337 9.952 104.529 10.46 104.881 10.812C105.233 11.156 105.721 11.328 106.345 11.328C106.697 11.328 107.033 11.276 107.353 11.172C107.673 11.06 107.977 10.88 108.265 10.632L108.601 11.316C108.337 11.564 108.001 11.76 107.593 11.904C107.185 12.04 106.769 12.108 106.345 12.108ZM106.189 6.78C105.637 6.78 105.201 6.952 104.881 7.296C104.561 7.64 104.373 8.092 104.317 8.652H107.857C107.833 8.06 107.677 7.6 107.389 7.272C107.109 6.944 106.709 6.78 106.189 6.78ZM112.323 12.108C111.803 12.108 111.347 11.984 110.955 11.736C110.571 11.488 110.271 11.14 110.055 10.692C109.847 10.236 109.743 9.7 109.743 9.084C109.743 8.46 109.847 7.924 110.055 7.476C110.271 7.02 110.571 6.672 110.955 6.432C111.347 6.184 111.803 6.06 112.323 6.06C112.779 6.06 113.179 6.16 113.523 6.36C113.875 6.56 114.135 6.836 114.303 7.188V3.54H115.275V12H114.327V10.932C114.159 11.3 113.899 11.588 113.547 11.796C113.195 12.004 112.787 12.108 112.323 12.108ZM112.527 11.328C113.071 11.328 113.507 11.136 113.835 10.752C114.163 10.36 114.327 9.804 114.327 9.084C114.327 8.356 114.163 7.8 113.835 7.416C113.507 7.032 113.071 6.84 112.527 6.84C111.975 6.84 111.535 7.032 111.207 7.416C110.887 7.8 110.727 8.356 110.727 9.084C110.727 9.804 110.887 10.36 111.207 10.752C111.535 11.136 111.975 11.328 112.527 11.328Z" fill="#56585A"/>
<circle cx="6.5" cy="29" r="5.5" stroke="#50D7AB" stroke-width="2"/>
<path d="M27.596 33.108C26.812 33.108 26.128 32.932 25.544 32.58C24.968 32.22 24.52 31.716 24.2 31.068C23.888 30.42 23.732 29.652 23.732 28.764C23.732 27.876 23.888 27.108 24.2 26.46C24.512 25.812 24.956 25.312 25.532 24.96C26.116 24.608 26.804 24.432 27.596 24.432C28.396 24.432 29.084 24.608 29.66 24.96C30.244 25.312 30.692 25.812 31.004 26.46C31.324 27.1 31.484 27.864 31.484 28.752C31.484 29.64 31.324 30.412 31.004 31.068C30.684 31.716 30.232 32.22 29.648 32.58C29.072 32.932 28.388 33.108 27.596 33.108ZM27.596 32.232C28.5 32.232 29.2 31.928 29.696 31.32C30.192 30.712 30.44 29.86 30.44 28.764C30.44 27.668 30.192 26.82 29.696 26.22C29.2 25.612 28.5 25.308 27.596 25.308C26.708 25.308 26.016 25.612 25.52 26.22C25.024 26.82 24.776 27.668 24.776 28.764C24.776 29.852 25.024 30.704 25.52 31.32C26.016 31.928 26.708 32.232 27.596 32.232ZM33.1112 33V27.168H34.0592V28.212C34.3712 27.508 35.0112 27.12 35.9792 27.048L36.3272 27.012L36.3992 27.852L35.7872 27.924C35.2352 27.972 34.8152 28.148 34.5272 28.452C34.2392 28.748 34.0952 29.156 34.0952 29.676V33H33.1112ZM39.5617 33.108C39.0417 33.108 38.5857 32.984 38.1937 32.736C37.8097 32.488 37.5097 32.14 37.2937 31.692C37.0857 31.236 36.9817 30.7 36.9817 30.084C36.9817 29.46 37.0857 28.924 37.2937 28.476C37.5097 28.02 37.8097 27.672 38.1937 27.432C38.5857 27.184 39.0417 27.06 39.5617 27.06C40.0177 27.06 40.4177 27.16 40.7617 27.36C41.1137 27.56 41.3737 27.836 41.5417 28.188V24.54H42.5137V33H41.5657V31.932C41.3977 32.3 41.1377 32.588 40.7857 32.796C40.4337 33.004 40.0257 33.108 39.5617 33.108ZM39.7657 32.328C40.3097 32.328 40.7457 32.136 41.0737 31.752C41.4017 31.36 41.5657 30.804 41.5657 30.084C41.5657 29.356 41.4017 28.8 41.0737 28.416C40.7457 28.032 40.3097 27.84 39.7657 27.84C39.2137 27.84 38.7737 28.032 38.4457 28.416C38.1257 28.8 37.9657 29.356 37.9657 30.084C37.9657 30.804 38.1257 31.36 38.4457 31.752C38.7737 32.136 39.2137 32.328 39.7657 32.328ZM46.9658 33.108C46.0458 33.108 45.3178 32.84 44.7818 32.304C44.2458 31.76 43.9778 31.024 43.9778 30.096C43.9778 29.496 44.0978 28.968 44.3378 28.512C44.5778 28.048 44.9058 27.692 45.3218 27.444C45.7458 27.188 46.2338 27.06 46.7858 27.06C47.5778 27.06 48.1978 27.316 48.6458 27.828C49.0938 28.332 49.3178 29.028 49.3178 29.916V30.288H44.9258C44.9578 30.952 45.1498 31.46 45.5018 31.812C45.8538 32.156 46.3418 32.328 46.9658 32.328C47.3178 32.328 47.6538 32.276 47.9738 32.172C48.2938 32.06 48.5978 31.88 48.8858 31.632L49.2218 32.316C48.9578 32.564 48.6218 32.76 48.2138 32.904C47.8058 33.04 47.3898 33.108 46.9658 33.108ZM46.8098 27.78C46.2578 27.78 45.8218 27.952 45.5018 28.296C45.1818 28.64 44.9938 29.092 44.9378 29.652H48.4778C48.4538 29.06 48.2978 28.6 48.0098 28.272C47.7298 27.944 47.3298 27.78 46.8098 27.78ZM50.7245 33V27.168H51.6725V28.212C51.9845 27.508 52.6245 27.12 53.5925 27.048L53.9405 27.012L54.0125 27.852L53.4005 27.924C52.8485 27.972 52.4285 28.148 52.1405 28.452C51.8525 28.748 51.7085 29.156 51.7085 29.676V33H50.7245ZM61.5753 33.108C60.4633 33.108 59.6193 32.816 59.0433 32.232C58.4673 31.64 58.1793 30.78 58.1793 29.652V24.54H59.1633V29.604C59.1633 31.356 59.9673 32.232 61.5753 32.232C63.1673 32.232 63.9633 31.356 63.9633 29.604V24.54H64.9473V29.652C64.9473 30.78 64.6593 31.64 64.0833 32.232C63.5153 32.816 62.6793 33.108 61.5753 33.108ZM66.8378 33V27.168H67.7858V28.164C67.9778 27.796 68.2498 27.52 68.6018 27.336C68.9538 27.152 69.3498 27.06 69.7898 27.06C71.1738 27.06 71.8658 27.828 71.8658 29.364V33H70.8938V29.424C70.8938 28.88 70.7858 28.484 70.5698 28.236C70.3618 27.98 70.0258 27.852 69.5618 27.852C69.0258 27.852 68.5978 28.02 68.2778 28.356C67.9658 28.684 67.8098 29.124 67.8098 29.676V33H66.8378ZM73.6581 35.16V27.168H74.6061V28.212C74.7821 27.852 75.0421 27.572 75.3861 27.372C75.7381 27.164 76.1461 27.06 76.6101 27.06C77.1301 27.06 77.5821 27.184 77.9661 27.432C78.3581 27.672 78.6581 28.02 78.8661 28.476C79.0821 28.924 79.1901 29.46 79.1901 30.084C79.1901 30.7 79.0821 31.236 78.8661 31.692C78.6581 32.14 78.3581 32.488 77.9661 32.736C77.5821 32.984 77.1301 33.108 76.6101 33.108C76.1621 33.108 75.7621 33.008 75.4101 32.808C75.0581 32.608 74.7981 32.332 74.6301 31.98V35.16H73.6581ZM76.4061 32.328C76.9501 32.328 77.3861 32.136 77.7141 31.752C78.0421 31.36 78.2061 30.804 78.2061 30.084C78.2061 29.356 78.0421 28.8 77.7141 28.416C77.3861 28.032 76.9501 27.84 76.4061 27.84C75.8621 27.84 75.4261 28.032 75.0981 28.416C74.7701 28.8 74.6061 29.356 74.6061 30.084C74.6061 30.804 74.7701 31.36 75.0981 31.752C75.4261 32.136 75.8621 32.328 76.4061 32.328ZM82.4902 33.108C82.0902 33.108 81.7302 33.032 81.4102 32.88C81.0982 32.72 80.8502 32.504 80.6662 32.232C80.4822 31.96 80.3902 31.656 80.3902 31.32C80.3902 30.896 80.4982 30.56 80.7142 30.312C80.9382 30.064 81.3022 29.888 81.8062 29.784C82.3182 29.672 83.0142 29.616 83.8942 29.616H84.2782V29.244C84.2782 28.748 84.1742 28.392 83.9662 28.176C83.7662 27.952 83.4422 27.84 82.9942 27.84C82.6422 27.84 82.3022 27.892 81.9742 27.996C81.6462 28.092 81.3102 28.252 80.9662 28.476L80.6302 27.768C80.9342 27.552 81.3022 27.38 81.7342 27.252C82.1742 27.124 82.5942 27.06 82.9942 27.06C83.7462 27.06 84.3022 27.244 84.6622 27.612C85.0302 27.98 85.2142 28.552 85.2142 29.328V33H84.3022V31.992C84.1502 32.336 83.9142 32.608 83.5942 32.808C83.2822 33.008 82.9142 33.108 82.4902 33.108ZM82.6462 32.376C83.1262 32.376 83.5182 32.212 83.8222 31.884C84.1262 31.548 84.2782 31.124 84.2782 30.612V30.252H83.9062C83.2582 30.252 82.7462 30.284 82.3702 30.348C82.0022 30.404 81.7422 30.508 81.5902 30.66C81.4462 30.804 81.3742 31.004 81.3742 31.26C81.3742 31.588 81.4862 31.856 81.7102 32.064C81.9422 32.272 82.2542 32.376 82.6462 32.376ZM86.8975 25.716V24.624H88.0975V25.716H86.8975ZM87.0175 33V27.168H87.9895V33H87.0175ZM92.0265 33.108C91.5065 33.108 91.0505 32.984 90.6585 32.736C90.2745 32.488 89.9745 32.14 89.7585 31.692C89.5505 31.236 89.4465 30.7 89.4465 30.084C89.4465 29.46 89.5505 28.924 89.7585 28.476C89.9745 28.02 90.2745 27.672 90.6585 27.432C91.0505 27.184 91.5065 27.06 92.0265 27.06C92.4825 27.06 92.8825 27.16 93.2265 27.36C93.5785 27.56 93.8385 27.836 94.0065 28.188V24.54H94.9785V33H94.0305V31.932C93.8625 32.3 93.6025 32.588 93.2505 32.796C92.8985 33.004 92.4905 33.108 92.0265 33.108ZM92.2305 32.328C92.7745 32.328 93.2105 32.136 93.5385 31.752C93.8665 31.36 94.0305 30.804 94.0305 30.084C94.0305 29.356 93.8665 28.8 93.5385 28.416C93.2105 28.032 92.7745 27.84 92.2305 27.84C91.6785 27.84 91.2385 28.032 90.9105 28.416C90.5905 28.8 90.4305 29.356 90.4305 30.084C90.4305 30.804 90.5905 31.36 90.9105 31.752C91.2385 32.136 91.6785 32.328 92.2305 32.328Z" fill="#56585A"/>
<circle cx="6.5" cy="50" r="5.5" stroke="#ED9090" stroke-width="2"/>
<path d="M27.596 54.108C26.812 54.108 26.128 53.932 25.544 53.58C24.968 53.22 24.52 52.716 24.2 52.068C23.888 51.42 23.732 50.652 23.732 49.764C23.732 48.876 23.888 48.108 24.2 47.46C24.512 46.812 24.956 46.312 25.532 45.96C26.116 45.608 26.804 45.432 27.596 45.432C28.396 45.432 29.084 45.608 29.66 45.96C30.244 46.312 30.692 46.812 31.004 47.46C31.324 48.1 31.484 48.864 31.484 49.752C31.484 50.64 31.324 51.412 31.004 52.068C30.684 52.716 30.232 53.22 29.648 53.58C29.072 53.932 28.388 54.108 27.596 54.108ZM27.596 53.232C28.5 53.232 29.2 52.928 29.696 52.32C30.192 51.712 30.44 50.86 30.44 49.764C30.44 48.668 30.192 47.82 29.696 47.22C29.2 46.612 28.5 46.308 27.596 46.308C26.708 46.308 26.016 46.612 25.52 47.22C25.024 47.82 24.776 48.668 24.776 49.764C24.776 50.852 25.024 51.704 25.52 52.32C26.016 52.928 26.708 53.232 27.596 53.232ZM33.1112 54V48.168H34.0592V49.212C34.3712 48.508 35.0112 48.12 35.9792 48.048L36.3272 48.012L36.3992 48.852L35.7872 48.924C35.2352 48.972 34.8152 49.148 34.5272 49.452C34.2392 49.748 34.0952 50.156 34.0952 50.676V54H33.1112ZM39.5617 54.108C39.0417 54.108 38.5857 53.984 38.1937 53.736C37.8097 53.488 37.5097 53.14 37.2937 52.692C37.0857 52.236 36.9817 51.7 36.9817 51.084C36.9817 50.46 37.0857 49.924 37.2937 49.476C37.5097 49.02 37.8097 48.672 38.1937 48.432C38.5857 48.184 39.0417 48.06 39.5617 48.06C40.0177 48.06 40.4177 48.16 40.7617 48.36C41.1137 48.56 41.3737 48.836 41.5417 49.188V45.54H42.5137V54H41.5657V52.932C41.3977 53.3 41.1377 53.588 40.7857 53.796C40.4337 54.004 40.0257 54.108 39.5617 54.108ZM39.7657 53.328C40.3097 53.328 40.7457 53.136 41.0737 52.752C41.4017 52.36 41.5657 51.804 41.5657 51.084C41.5657 50.356 41.4017 49.8 41.0737 49.416C40.7457 49.032 40.3097 48.84 39.7657 48.84C39.2137 48.84 38.7737 49.032 38.4457 49.416C38.1257 49.8 37.9657 50.356 37.9657 51.084C37.9657 51.804 38.1257 52.36 38.4457 52.752C38.7737 53.136 39.2137 53.328 39.7657 53.328ZM46.9658 54.108C46.0458 54.108 45.3178 53.84 44.7818 53.304C44.2458 52.76 43.9778 52.024 43.9778 51.096C43.9778 50.496 44.0978 49.968 44.3378 49.512C44.5778 49.048 44.9058 48.692 45.3218 48.444C45.7458 48.188 46.2338 48.06 46.7858 48.06C47.5778 48.06 48.1978 48.316 48.6458 48.828C49.0938 49.332 49.3178 50.028 49.3178 50.916V51.288H44.9258C44.9578 51.952 45.1498 52.46 45.5018 52.812C45.8538 53.156 46.3418 53.328 46.9658 53.328C47.3178 53.328 47.6538 53.276 47.9738 53.172C48.2938 53.06 48.5978 52.88 48.8858 52.632L49.2218 53.316C48.9578 53.564 48.6218 53.76 48.2138 53.904C47.8058 54.04 47.3898 54.108 46.9658 54.108ZM46.8098 48.78C46.2578 48.78 45.8218 48.952 45.5018 49.296C45.1818 49.64 44.9938 50.092 44.9378 50.652H48.4778C48.4538 50.06 48.2978 49.6 48.0098 49.272C47.7298 48.944 47.3298 48.78 46.8098 48.78ZM50.7245 54V48.168H51.6725V49.212C51.9845 48.508 52.6245 48.12 53.5925 48.048L53.9405 48.012L54.0125 48.852L53.4005 48.924C52.8485 48.972 52.4285 49.148 52.1405 49.452C51.8525 49.748 51.7085 50.156 51.7085 50.676V54H50.7245ZM58.1073 54V48.168H59.0553V49.212C59.3673 48.508 60.0073 48.12 60.9753 48.048L61.3233 48.012L61.3953 48.852L60.7833 48.924C60.2313 48.972 59.8113 49.148 59.5233 49.452C59.2353 49.748 59.0913 50.156 59.0913 50.676V54H58.1073ZM64.9658 54.108C64.0458 54.108 63.3178 53.84 62.7818 53.304C62.2458 52.76 61.9778 52.024 61.9778 51.096C61.9778 50.496 62.0978 49.968 62.3378 49.512C62.5778 49.048 62.9058 48.692 63.3218 48.444C63.7458 48.188 64.2338 48.06 64.7858 48.06C65.5778 48.06 66.1978 48.316 66.6458 48.828C67.0938 49.332 67.3178 50.028 67.3178 50.916V51.288H62.9258C62.9578 51.952 63.1498 52.46 63.5018 52.812C63.8538 53.156 64.3418 53.328 64.9658 53.328C65.3178 53.328 65.6538 53.276 65.9738 53.172C66.2938 53.06 66.5978 52.88 66.8858 52.632L67.2218 53.316C66.9578 53.564 66.6218 53.76 66.2138 53.904C65.8058 54.04 65.3898 54.108 64.9658 54.108ZM64.8098 48.78C64.2578 48.78 63.8218 48.952 63.5018 49.296C63.1818 49.64 62.9938 50.092 62.9378 50.652H66.4778C66.4538 50.06 66.2978 49.6 66.0098 49.272C65.7298 48.944 65.3298 48.78 64.8098 48.78ZM71.0645 54.108C70.3765 54.108 69.8605 53.928 69.5165 53.568C69.1725 53.2 69.0005 52.672 69.0005 51.984V48.924H67.8605V48.168H69.0005V46.38H69.9725V48.168H71.8205V48.924H69.9725V51.888C69.9725 52.344 70.0685 52.692 70.2605 52.932C70.4525 53.164 70.7645 53.28 71.1965 53.28C71.3245 53.28 71.4525 53.264 71.5805 53.232C71.7085 53.2 71.8245 53.168 71.9285 53.136L72.0965 53.88C71.9925 53.936 71.8405 53.988 71.6405 54.036C71.4405 54.084 71.2485 54.108 71.0645 54.108ZM74.9838 54.108C73.5838 54.108 72.8838 53.336 72.8838 51.792V48.168H73.8558V51.78C73.8558 52.3 73.9598 52.684 74.1678 52.932C74.3838 53.18 74.7198 53.304 75.1758 53.304C75.6718 53.304 76.0758 53.14 76.3878 52.812C76.6998 52.476 76.8558 52.032 76.8558 51.48V48.168H77.8278V54H76.8798V53.016C76.6958 53.368 76.4358 53.64 76.0998 53.832C75.7718 54.016 75.3998 54.108 74.9838 54.108ZM79.6464 54V48.168H80.5944V49.212C80.9064 48.508 81.5464 48.12 82.5144 48.048L82.8624 48.012L82.9344 48.852L82.3224 48.924C81.7704 48.972 81.3504 49.148 81.0624 49.452C80.7744 49.748 80.6304 50.156 80.6304 50.676V54H79.6464ZM83.9472 54V48.168H84.8952V49.164C85.0872 48.796 85.3592 48.52 85.7112 48.336C86.0632 48.152 86.4592 48.06 86.8992 48.06C88.2832 48.06 88.9752 48.828 88.9752 50.364V54H88.0032V50.424C88.0032 49.88 87.8952 49.484 87.6792 49.236C87.4712 48.98 87.1352 48.852 86.6712 48.852C86.1352 48.852 85.7072 49.02 85.3872 49.356C85.0752 49.684 84.9192 50.124 84.9192 50.676V54H83.9472ZM93.3955 54.108C92.4755 54.108 91.7475 53.84 91.2115 53.304C90.6755 52.76 90.4075 52.024 90.4075 51.096C90.4075 50.496 90.5275 49.968 90.7675 49.512C91.0075 49.048 91.3355 48.692 91.7515 48.444C92.1755 48.188 92.6635 48.06 93.2155 48.06C94.0075 48.06 94.6275 48.316 95.0755 48.828C95.5235 49.332 95.7475 50.028 95.7475 50.916V51.288H91.3555C91.3875 51.952 91.5795 52.46 91.9315 52.812C92.2835 53.156 92.7715 53.328 93.3955 53.328C93.7475 53.328 94.0835 53.276 94.4035 53.172C94.7235 53.06 95.0275 52.88 95.3155 52.632L95.6515 53.316C95.3875 53.564 95.0515 53.76 94.6435 53.904C94.2355 54.04 93.8195 54.108 93.3955 54.108ZM93.2395 48.78C92.6875 48.78 92.2515 48.952 91.9315 49.296C91.6115 49.64 91.4235 50.092 91.3675 50.652H94.9075C94.8835 50.06 94.7275 49.6 94.4395 49.272C94.1595 48.944 93.7595 48.78 93.2395 48.78ZM99.3742 54.108C98.8542 54.108 98.3982 53.984 98.0062 53.736C97.6222 53.488 97.3222 53.14 97.1062 52.692C96.8982 52.236 96.7942 51.7 96.7942 51.084C96.7942 50.46 96.8982 49.924 97.1062 49.476C97.3222 49.02 97.6222 48.672 98.0062 48.432C98.3982 48.184 98.8542 48.06 99.3742 48.06C99.8302 48.06 100.23 48.16 100.574 48.36C100.926 48.56 101.186 48.836 101.354 49.188V45.54H102.326V54H101.378V52.932C101.21 53.3 100.95 53.588 100.598 53.796C100.246 54.004 99.8382 54.108 99.3742 54.108ZM99.5782 53.328C100.122 53.328 100.558 53.136 100.886 52.752C101.214 52.36 101.378 51.804 101.378 51.084C101.378 50.356 101.214 49.8 100.886 49.416C100.558 49.032 100.122 48.84 99.5782 48.84C99.0262 48.84 98.5862 49.032 98.2582 49.416C97.9382 49.8 97.7782 50.356 97.7782 51.084C97.7782 51.804 97.9382 52.36 98.2582 52.752C98.5862 53.136 99.0262 53.328 99.5782 53.328Z" fill="#56585A"/>
<circle cx="168.5" cy="8" r="5.5" stroke="#88AAF3" stroke-width="2"/>
<path d="M189.596 12.108C188.812 12.108 188.128 11.932 187.544 11.58C186.968 11.22 186.52 10.716 186.2 10.068C185.888 9.42 185.732 8.652 185.732 7.764C185.732 6.876 185.888 6.108 186.2 5.46C186.512 4.812 186.956 4.312 187.532 3.96C188.116 3.608 188.804 3.432 189.596 3.432C190.396 3.432 191.084 3.608 191.66 3.96C192.244 4.312 192.692 4.812 193.004 5.46C193.324 6.1 193.484 6.864 193.484 7.752C193.484 8.64 193.324 9.412 193.004 10.068C192.684 10.716 192.232 11.22 191.648 11.58C191.072 11.932 190.388 12.108 189.596 12.108ZM189.596 11.232C190.5 11.232 191.2 10.928 191.696 10.32C192.192 9.712 192.44 8.86 192.44 7.764C192.44 6.668 192.192 5.82 191.696 5.22C191.2 4.612 190.5 4.308 189.596 4.308C188.708 4.308 188.016 4.612 187.52 5.22C187.024 5.82 186.776 6.668 186.776 7.764C186.776 8.852 187.024 9.704 187.52 10.32C188.016 10.928 188.708 11.232 189.596 11.232ZM195.111 12V6.168H196.059V7.212C196.371 6.508 197.011 6.12 197.979 6.048L198.327 6.012L198.399 6.852L197.787 6.924C197.235 6.972 196.815 7.148 196.527 7.452C196.239 7.748 196.095 8.156 196.095 8.676V12H195.111ZM201.562 12.108C201.042 12.108 200.586 11.984 200.194 11.736C199.81 11.488 199.51 11.14 199.294 10.692C199.086 10.236 198.982 9.7 198.982 9.084C198.982 8.46 199.086 7.924 199.294 7.476C199.51 7.02 199.81 6.672 200.194 6.432C200.586 6.184 201.042 6.06 201.562 6.06C202.018 6.06 202.418 6.16 202.762 6.36C203.114 6.56 203.374 6.836 203.542 7.188V3.54H204.514V12H203.566V10.932C203.398 11.3 203.138 11.588 202.786 11.796C202.434 12.004 202.026 12.108 201.562 12.108ZM201.766 11.328C202.31 11.328 202.746 11.136 203.074 10.752C203.402 10.36 203.566 9.804 203.566 9.084C203.566 8.356 203.402 7.8 203.074 7.416C202.746 7.032 202.31 6.84 201.766 6.84C201.214 6.84 200.774 7.032 200.446 7.416C200.126 7.8 199.966 8.356 199.966 9.084C199.966 9.804 200.126 10.36 200.446 10.752C200.774 11.136 201.214 11.328 201.766 11.328ZM208.966 12.108C208.046 12.108 207.318 11.84 206.782 11.304C206.246 10.76 205.978 10.024 205.978 9.096C205.978 8.496 206.098 7.968 206.338 7.512C206.578 7.048 206.906 6.692 207.322 6.444C207.746 6.188 208.234 6.06 208.786 6.06C209.578 6.06 210.198 6.316 210.646 6.828C211.094 7.332 211.318 8.028 211.318 8.916V9.288H206.926C206.958 9.952 207.15 10.46 207.502 10.812C207.854 11.156 208.342 11.328 208.966 11.328C209.318 11.328 209.654 11.276 209.974 11.172C210.294 11.06 210.598 10.88 210.886 10.632L211.222 11.316C210.958 11.564 210.622 11.76 210.214 11.904C209.806 12.04 209.39 12.108 208.966 12.108ZM208.81 6.78C208.258 6.78 207.822 6.952 207.502 7.296C207.182 7.64 206.994 8.092 206.938 8.652H210.478C210.454 8.06 210.298 7.6 210.01 7.272C209.73 6.944 209.33 6.78 208.81 6.78ZM212.725 12V6.168H213.673V7.212C213.985 6.508 214.625 6.12 215.593 6.048L215.941 6.012L216.013 6.852L215.401 6.924C214.849 6.972 214.429 7.148 214.141 7.452C213.853 7.748 213.709 8.156 213.709 8.676V12H212.725ZM220.239 12V3.54H223.587C224.499 3.54 225.195 3.76 225.675 4.2C226.163 4.64 226.407 5.268 226.407 6.084C226.407 6.892 226.163 7.52 225.675 7.968C225.195 8.408 224.499 8.628 223.587 8.628H221.223V12H220.239ZM221.223 7.8H223.467C224.779 7.8 225.435 7.228 225.435 6.084C225.435 4.932 224.779 4.356 223.467 4.356H221.223V7.8ZM230.06 12.108C229.14 12.108 228.412 11.84 227.876 11.304C227.34 10.76 227.072 10.024 227.072 9.096C227.072 8.496 227.192 7.968 227.432 7.512C227.672 7.048 228 6.692 228.416 6.444C228.84 6.188 229.328 6.06 229.88 6.06C230.672 6.06 231.292 6.316 231.74 6.828C232.188 7.332 232.412 8.028 232.412 8.916V9.288H228.02C228.052 9.952 228.244 10.46 228.596 10.812C228.948 11.156 229.436 11.328 230.06 11.328C230.412 11.328 230.748 11.276 231.068 11.172C231.388 11.06 231.692 10.88 231.98 10.632L232.316 11.316C232.052 11.564 231.716 11.76 231.308 11.904C230.9 12.04 230.484 12.108 230.06 12.108ZM229.904 6.78C229.352 6.78 228.916 6.952 228.596 7.296C228.276 7.64 228.088 8.092 228.032 8.652H231.572C231.548 8.06 231.392 7.6 231.104 7.272C230.824 6.944 230.424 6.78 229.904 6.78ZM233.818 12V6.168H234.766V7.164C234.958 6.796 235.23 6.52 235.582 6.336C235.934 6.152 236.33 6.06 236.77 6.06C238.154 6.06 238.846 6.828 238.846 8.364V12H237.874V8.424C237.874 7.88 237.766 7.484 237.55 7.236C237.342 6.98 237.006 6.852 236.542 6.852C236.006 6.852 235.578 7.02 235.258 7.356C234.946 7.684 234.79 8.124 234.79 8.676V12H233.818ZM242.859 12.108C242.339 12.108 241.883 11.984 241.491 11.736C241.107 11.488 240.807 11.14 240.591 10.692C240.383 10.236 240.279 9.7 240.279 9.084C240.279 8.46 240.383 7.924 240.591 7.476C240.807 7.02 241.107 6.672 241.491 6.432C241.883 6.184 242.339 6.06 242.859 6.06C243.315 6.06 243.715 6.16 244.059 6.36C244.411 6.56 244.671 6.836 244.839 7.188V3.54H245.811V12H244.863V10.932C244.695 11.3 244.435 11.588 244.083 11.796C243.731 12.004 243.323 12.108 242.859 12.108ZM243.063 11.328C243.607 11.328 244.043 11.136 244.371 10.752C244.699 10.36 244.863 9.804 244.863 9.084C244.863 8.356 244.699 7.8 244.371 7.416C244.043 7.032 243.607 6.84 243.063 6.84C242.511 6.84 242.071 7.032 241.743 7.416C241.423 7.8 241.263 8.356 241.263 9.084C241.263 9.804 241.423 10.36 241.743 10.752C242.071 11.136 242.511 11.328 243.063 11.328ZM247.515 4.716V3.624H248.715V4.716H247.515ZM247.635 12V6.168H248.607V12H247.635ZM250.424 12V6.168H251.372V7.164C251.564 6.796 251.836 6.52 252.188 6.336C252.54 6.152 252.936 6.06 253.376 6.06C254.76 6.06 255.452 6.828 255.452 8.364V12H254.48V8.424C254.48 7.88 254.372 7.484 254.156 7.236C253.948 6.98 253.612 6.852 253.148 6.852C252.612 6.852 252.184 7.02 251.864 7.356C251.552 7.684 251.396 8.124 251.396 8.676V12H250.424ZM259.824 14.268C259.32 14.268 258.844 14.2 258.396 14.064C257.956 13.936 257.564 13.74 257.22 13.476L257.544 12.768C257.904 13.024 258.26 13.208 258.612 13.32C258.972 13.432 259.36 13.488 259.776 13.488C260.928 13.488 261.504 12.896 261.504 11.712V10.68C261.336 11.048 261.072 11.34 260.712 11.556C260.36 11.764 259.956 11.868 259.5 11.868C258.964 11.868 258.5 11.744 258.108 11.496C257.716 11.248 257.412 10.908 257.196 10.476C256.988 10.036 256.884 9.528 256.884 8.952C256.884 8.376 256.988 7.872 257.196 7.44C257.412 7 257.716 6.66 258.108 6.42C258.5 6.18 258.964 6.06 259.5 6.06C259.956 6.06 260.36 6.164 260.712 6.372C261.072 6.58 261.336 6.864 261.504 7.224V6.168H262.452V11.58C262.452 12.476 262.228 13.148 261.78 13.596C261.34 14.044 260.688 14.268 259.824 14.268ZM259.68 11.076C260.24 11.076 260.684 10.884 261.012 10.5C261.34 10.116 261.504 9.6 261.504 8.952C261.504 8.304 261.34 7.792 261.012 7.416C260.684 7.032 260.24 6.84 259.68 6.84C259.128 6.84 258.688 7.032 258.36 7.416C258.032 7.792 257.868 8.304 257.868 8.952C257.868 9.6 258.032 10.116 258.36 10.5C258.688 10.884 259.128 11.076 259.68 11.076Z" fill="#56585A"/>
<circle cx="168.5" cy="29" r="5.5" stroke="#50D7AB" stroke-width="2"/>
<path d="M189.596 33.108C188.812 33.108 188.128 32.932 187.544 32.58C186.968 32.22 186.52 31.716 186.2 31.068C185.888 30.42 185.732 29.652 185.732 28.764C185.732 27.876 185.888 27.108 186.2 26.46C186.512 25.812 186.956 25.312 187.532 24.96C188.116 24.608 188.804 24.432 189.596 24.432C190.396 24.432 191.084 24.608 191.66 24.96C192.244 25.312 192.692 25.812 193.004 26.46C193.324 27.1 193.484 27.864 193.484 28.752C193.484 29.64 193.324 30.412 193.004 31.068C192.684 31.716 192.232 32.22 191.648 32.58C191.072 32.932 190.388 33.108 189.596 33.108ZM189.596 32.232C190.5 32.232 191.2 31.928 191.696 31.32C192.192 30.712 192.44 29.86 192.44 28.764C192.44 27.668 192.192 26.82 191.696 26.22C191.2 25.612 190.5 25.308 189.596 25.308C188.708 25.308 188.016 25.612 187.52 26.22C187.024 26.82 186.776 27.668 186.776 28.764C186.776 29.852 187.024 30.704 187.52 31.32C188.016 31.928 188.708 32.232 189.596 32.232ZM195.111 33V27.168H196.059V28.212C196.371 27.508 197.011 27.12 197.979 27.048L198.327 27.012L198.399 27.852L197.787 27.924C197.235 27.972 196.815 28.148 196.527 28.452C196.239 28.748 196.095 29.156 196.095 29.676V33H195.111ZM201.562 33.108C201.042 33.108 200.586 32.984 200.194 32.736C199.81 32.488 199.51 32.14 199.294 31.692C199.086 31.236 198.982 30.7 198.982 30.084C198.982 29.46 199.086 28.924 199.294 28.476C199.51 28.02 199.81 27.672 200.194 27.432C200.586 27.184 201.042 27.06 201.562 27.06C202.018 27.06 202.418 27.16 202.762 27.36C203.114 27.56 203.374 27.836 203.542 28.188V24.54H204.514V33H203.566V31.932C203.398 32.3 203.138 32.588 202.786 32.796C202.434 33.004 202.026 33.108 201.562 33.108ZM201.766 32.328C202.31 32.328 202.746 32.136 203.074 31.752C203.402 31.36 203.566 30.804 203.566 30.084C203.566 29.356 203.402 28.8 203.074 28.416C202.746 28.032 202.31 27.84 201.766 27.84C201.214 27.84 200.774 28.032 200.446 28.416C200.126 28.8 199.966 29.356 199.966 30.084C199.966 30.804 200.126 31.36 200.446 31.752C200.774 32.136 201.214 32.328 201.766 32.328ZM208.966 33.108C208.046 33.108 207.318 32.84 206.782 32.304C206.246 31.76 205.978 31.024 205.978 30.096C205.978 29.496 206.098 28.968 206.338 28.512C206.578 28.048 206.906 27.692 207.322 27.444C207.746 27.188 208.234 27.06 208.786 27.06C209.578 27.06 210.198 27.316 210.646 27.828C211.094 28.332 211.318 29.028 211.318 29.916V30.288H206.926C206.958 30.952 207.15 31.46 207.502 31.812C207.854 32.156 208.342 32.328 208.966 32.328C209.318 32.328 209.654 32.276 209.974 32.172C210.294 32.06 210.598 31.88 210.886 31.632L211.222 32.316C210.958 32.564 210.622 32.76 210.214 32.904C209.806 33.04 209.39 33.108 208.966 33.108ZM208.81 27.78C208.258 27.78 207.822 27.952 207.502 28.296C207.182 28.64 206.994 29.092 206.938 29.652H210.478C210.454 29.06 210.298 28.6 210.01 28.272C209.73 27.944 209.33 27.78 208.81 27.78ZM212.725 33V27.168H213.673V28.212C213.985 27.508 214.625 27.12 215.593 27.048L215.941 27.012L216.013 27.852L215.401 27.924C214.849 27.972 214.429 28.148 214.141 28.452C213.853 28.748 213.709 29.156 213.709 29.676V33H212.725ZM223.899 33.108C223.067 33.108 222.355 32.932 221.763 32.58C221.171 32.228 220.715 31.728 220.395 31.08C220.083 30.432 219.927 29.66 219.927 28.764C219.927 27.876 220.083 27.108 220.395 26.46C220.715 25.812 221.171 25.312 221.763 24.96C222.355 24.608 223.067 24.432 223.899 24.432C224.483 24.432 225.019 24.524 225.507 24.708C226.003 24.892 226.423 25.16 226.767 25.512L226.383 26.316C226.015 25.972 225.631 25.724 225.231 25.572C224.839 25.412 224.403 25.332 223.923 25.332C222.971 25.332 222.243 25.632 221.739 26.232C221.235 26.832 220.983 27.676 220.983 28.764C220.983 29.86 221.235 30.708 221.739 31.308C222.243 31.908 222.971 32.208 223.923 32.208C224.403 32.208 224.839 32.132 225.231 31.98C225.631 31.82 226.015 31.568 226.383 31.224L226.767 32.028C226.423 32.372 226.003 32.64 225.507 32.832C225.019 33.016 224.483 33.108 223.899 33.108ZM229.83 33.108C229.43 33.108 229.07 33.032 228.75 32.88C228.438 32.72 228.19 32.504 228.006 32.232C227.822 31.96 227.73 31.656 227.73 31.32C227.73 30.896 227.838 30.56 228.054 30.312C228.278 30.064 228.642 29.888 229.146 29.784C229.658 29.672 230.354 29.616 231.234 29.616H231.618V29.244C231.618 28.748 231.514 28.392 231.306 28.176C231.106 27.952 230.782 27.84 230.334 27.84C229.982 27.84 229.642 27.892 229.314 27.996C228.986 28.092 228.65 28.252 228.306 28.476L227.97 27.768C228.274 27.552 228.642 27.38 229.074 27.252C229.514 27.124 229.934 27.06 230.334 27.06C231.086 27.06 231.642 27.244 232.002 27.612C232.37 27.98 232.554 28.552 232.554 29.328V33H231.642V31.992C231.49 32.336 231.254 32.608 230.934 32.808C230.622 33.008 230.254 33.108 229.83 33.108ZM229.986 32.376C230.466 32.376 230.858 32.212 231.162 31.884C231.466 31.548 231.618 31.124 231.618 30.612V30.252H231.246C230.598 30.252 230.086 30.284 229.71 30.348C229.342 30.404 229.082 30.508 228.93 30.66C228.786 30.804 228.714 31.004 228.714 31.26C228.714 31.588 228.826 31.856 229.05 32.064C229.282 32.272 229.594 32.376 229.986 32.376ZM234.357 33V27.168H235.305V28.164C235.497 27.796 235.769 27.52 236.121 27.336C236.473 27.152 236.869 27.06 237.309 27.06C238.693 27.06 239.385 27.828 239.385 29.364V33H238.413V29.424C238.413 28.88 238.305 28.484 238.089 28.236C237.881 27.98 237.545 27.852 237.081 27.852C236.545 27.852 236.117 28.02 235.797 28.356C235.485 28.684 235.329 29.124 235.329 29.676V33H234.357ZM243.65 33.108C243.066 33.108 242.562 32.984 242.138 32.736C241.714 32.48 241.386 32.124 241.154 31.668C240.93 31.204 240.818 30.664 240.818 30.048C240.818 29.12 241.07 28.392 241.574 27.864C242.078 27.328 242.77 27.06 243.65 27.06C244.01 27.06 244.366 27.124 244.718 27.252C245.07 27.38 245.362 27.56 245.594 27.792L245.258 28.5C245.026 28.276 244.77 28.112 244.49 28.008C244.218 27.904 243.958 27.852 243.71 27.852C243.102 27.852 242.634 28.044 242.306 28.428C241.978 28.804 241.814 29.348 241.814 30.06C241.814 30.756 241.978 31.308 242.306 31.716C242.634 32.116 243.102 32.316 243.71 32.316C243.958 32.316 244.218 32.264 244.49 32.16C244.77 32.056 245.026 31.888 245.258 31.656L245.594 32.364C245.362 32.596 245.066 32.78 244.706 32.916C244.354 33.044 244.002 33.108 243.65 33.108ZM249.243 33.108C248.323 33.108 247.595 32.84 247.059 32.304C246.523 31.76 246.255 31.024 246.255 30.096C246.255 29.496 246.375 28.968 246.615 28.512C246.855 28.048 247.183 27.692 247.599 27.444C248.023 27.188 248.511 27.06 249.063 27.06C249.855 27.06 250.475 27.316 250.923 27.828C251.371 28.332 251.595 29.028 251.595 29.916V30.288H247.203C247.235 30.952 247.427 31.46 247.779 31.812C248.131 32.156 248.619 32.328 249.243 32.328C249.595 32.328 249.931 32.276 250.251 32.172C250.571 32.06 250.875 31.88 251.163 31.632L251.499 32.316C251.235 32.564 250.899 32.76 250.491 32.904C250.083 33.04 249.667 33.108 249.243 33.108ZM249.087 27.78C248.535 27.78 248.099 27.952 247.779 28.296C247.459 28.64 247.271 29.092 247.215 29.652H250.755C250.731 29.06 250.575 28.6 250.287 28.272C250.007 27.944 249.607 27.78 249.087 27.78ZM254.79 33.108C254.198 33.108 253.75 32.936 253.446 32.592C253.15 32.24 253.002 31.732 253.002 31.068V24.54H253.974V30.996C253.974 31.852 254.314 32.28 254.994 32.28C255.194 32.28 255.374 32.256 255.534 32.208L255.51 33.024C255.262 33.08 255.022 33.108 254.79 33.108ZM259.122 33.108C258.202 33.108 257.474 32.84 256.938 32.304C256.402 31.76 256.134 31.024 256.134 30.096C256.134 29.496 256.254 28.968 256.494 28.512C256.734 28.048 257.062 27.692 257.478 27.444C257.902 27.188 258.39 27.06 258.942 27.06C259.734 27.06 260.354 27.316 260.802 27.828C261.25 28.332 261.474 29.028 261.474 29.916V30.288H257.082C257.114 30.952 257.306 31.46 257.658 31.812C258.01 32.156 258.498 32.328 259.122 32.328C259.474 32.328 259.81 32.276 260.13 32.172C260.45 32.06 260.754 31.88 261.042 31.632L261.378 32.316C261.114 32.564 260.778 32.76 260.37 32.904C259.962 33.04 259.546 33.108 259.122 33.108ZM258.966 27.78C258.414 27.78 257.978 27.952 257.658 28.296C257.338 28.64 257.15 29.092 257.094 29.652H260.634C260.61 29.06 260.454 28.6 260.166 28.272C259.886 27.944 259.486 27.78 258.966 27.78ZM265.101 33.108C264.581 33.108 264.125 32.984 263.733 32.736C263.349 32.488 263.049 32.14 262.833 31.692C262.625 31.236 262.521 30.7 262.521 30.084C262.521 29.46 262.625 28.924 262.833 28.476C263.049 28.02 263.349 27.672 263.733 27.432C264.125 27.184 264.581 27.06 265.101 27.06C265.557 27.06 265.957 27.16 266.301 27.36C266.653 27.56 266.913 27.836 267.081 28.188V24.54H268.053V33H267.105V31.932C266.937 32.3 266.677 32.588 266.325 32.796C265.973 33.004 265.565 33.108 265.101 33.108ZM265.305 32.328C265.849 32.328 266.285 32.136 266.613 31.752C266.941 31.36 267.105 30.804 267.105 30.084C267.105 29.356 266.941 28.8 266.613 28.416C266.285 28.032 265.849 27.84 265.305 27.84C264.753 27.84 264.313 28.032 263.985 28.416C263.665 28.8 263.505 29.356 263.505 30.084C263.505 30.804 263.665 31.36 263.985 31.752C264.313 32.136 264.753 32.328 265.305 32.328Z" fill="#56585A"/>
<circle cx="168.5" cy="50" r="5.5" stroke="#ED9090" stroke-width="2"/>
<path d="M189.596 54.108C188.812 54.108 188.128 53.932 187.544 53.58C186.968 53.22 186.52 52.716 186.2 52.068C185.888 51.42 185.732 50.652 185.732 49.764C185.732 48.876 185.888 48.108 186.2 47.46C186.512 46.812 186.956 46.312 187.532 45.96C188.116 45.608 188.804 45.432 189.596 45.432C190.396 45.432 191.084 45.608 191.66 45.96C192.244 46.312 192.692 46.812 193.004 47.46C193.324 48.1 193.484 48.864 193.484 49.752C193.484 50.64 193.324 51.412 193.004 52.068C192.684 52.716 192.232 53.22 191.648 53.58C191.072 53.932 190.388 54.108 189.596 54.108ZM189.596 53.232C190.5 53.232 191.2 52.928 191.696 52.32C192.192 51.712 192.44 50.86 192.44 49.764C192.44 48.668 192.192 47.82 191.696 47.22C191.2 46.612 190.5 46.308 189.596 46.308C188.708 46.308 188.016 46.612 187.52 47.22C187.024 47.82 186.776 48.668 186.776 49.764C186.776 50.852 187.024 51.704 187.52 52.32C188.016 52.928 188.708 53.232 189.596 53.232ZM195.111 54V48.168H196.059V49.212C196.371 48.508 197.011 48.12 197.979 48.048L198.327 48.012L198.399 48.852L197.787 48.924C197.235 48.972 196.815 49.148 196.527 49.452C196.239 49.748 196.095 50.156 196.095 50.676V54H195.111ZM201.562 54.108C201.042 54.108 200.586 53.984 200.194 53.736C199.81 53.488 199.51 53.14 199.294 52.692C199.086 52.236 198.982 51.7 198.982 51.084C198.982 50.46 199.086 49.924 199.294 49.476C199.51 49.02 199.81 48.672 200.194 48.432C200.586 48.184 201.042 48.06 201.562 48.06C202.018 48.06 202.418 48.16 202.762 48.36C203.114 48.56 203.374 48.836 203.542 49.188V45.54H204.514V54H203.566V52.932C203.398 53.3 203.138 53.588 202.786 53.796C202.434 54.004 202.026 54.108 201.562 54.108ZM201.766 53.328C202.31 53.328 202.746 53.136 203.074 52.752C203.402 52.36 203.566 51.804 203.566 51.084C203.566 50.356 203.402 49.8 203.074 49.416C202.746 49.032 202.31 48.84 201.766 48.84C201.214 48.84 200.774 49.032 200.446 49.416C200.126 49.8 199.966 50.356 199.966 51.084C199.966 51.804 200.126 52.36 200.446 52.752C200.774 53.136 201.214 53.328 201.766 53.328ZM208.966 54.108C208.046 54.108 207.318 53.84 206.782 53.304C206.246 52.76 205.978 52.024 205.978 51.096C205.978 50.496 206.098 49.968 206.338 49.512C206.578 49.048 206.906 48.692 207.322 48.444C207.746 48.188 208.234 48.06 208.786 48.06C209.578 48.06 210.198 48.316 210.646 48.828C211.094 49.332 211.318 50.028 211.318 50.916V51.288H206.926C206.958 51.952 207.15 52.46 207.502 52.812C207.854 53.156 208.342 53.328 208.966 53.328C209.318 53.328 209.654 53.276 209.974 53.172C210.294 53.06 210.598 52.88 210.886 52.632L211.222 53.316C210.958 53.564 210.622 53.76 210.214 53.904C209.806 54.04 209.39 54.108 208.966 54.108ZM208.81 48.78C208.258 48.78 207.822 48.952 207.502 49.296C207.182 49.64 206.994 50.092 206.938 50.652H210.478C210.454 50.06 210.298 49.6 210.01 49.272C209.73 48.944 209.33 48.78 208.81 48.78ZM212.725 54V48.168H213.673V49.212C213.985 48.508 214.625 48.12 215.593 48.048L215.941 48.012L216.013 48.852L215.401 48.924C214.849 48.972 214.429 49.148 214.141 49.452C213.853 49.748 213.709 50.156 213.709 50.676V54H212.725ZM220.239 54V45.54H223.623C224.495 45.54 225.167 45.736 225.639 46.128C226.119 46.512 226.359 47.052 226.359 47.748C226.359 48.212 226.239 48.608 225.999 48.936C225.759 49.264 225.427 49.504 225.003 49.656C225.491 49.784 225.871 50.02 226.143 50.364C226.423 50.708 226.563 51.144 226.563 51.672C226.563 52.424 226.319 53 225.831 53.4C225.343 53.8 224.655 54 223.767 54H220.239ZM221.199 49.32H223.479C224.751 49.32 225.387 48.824 225.387 47.832C225.387 46.832 224.751 46.332 223.479 46.332H221.199V49.32ZM221.199 53.208H223.671C224.951 53.208 225.591 52.692 225.591 51.66C225.591 50.628 224.951 50.112 223.671 50.112H221.199V53.208ZM228.217 54V48.168H229.165V49.212C229.477 48.508 230.117 48.12 231.085 48.048L231.433 48.012L231.505 48.852L230.893 48.924C230.341 48.972 229.921 49.148 229.633 49.452C229.345 49.748 229.201 50.156 229.201 50.676V54H228.217ZM234.871 54.108C234.303 54.108 233.811 53.984 233.395 53.736C232.979 53.488 232.655 53.14 232.423 52.692C232.199 52.236 232.087 51.7 232.087 51.084C232.087 50.468 232.199 49.936 232.423 49.488C232.655 49.032 232.979 48.68 233.395 48.432C233.811 48.184 234.303 48.06 234.871 48.06C235.431 48.06 235.919 48.184 236.335 48.432C236.759 48.68 237.083 49.032 237.307 49.488C237.539 49.936 237.655 50.468 237.655 51.084C237.655 51.7 237.539 52.236 237.307 52.692C237.083 53.14 236.759 53.488 236.335 53.736C235.919 53.984 235.431 54.108 234.871 54.108ZM234.871 53.328C235.415 53.328 235.851 53.136 236.179 52.752C236.507 52.36 236.671 51.804 236.671 51.084C236.671 50.356 236.507 49.8 236.179 49.416C235.851 49.032 235.415 48.84 234.871 48.84C234.319 48.84 233.879 49.032 233.551 49.416C233.231 49.8 233.071 50.356 233.071 51.084C233.071 51.804 233.231 52.36 233.551 52.752C233.879 53.136 234.319 53.328 234.871 53.328ZM239.115 54V45.54H240.087V50.76H240.111L242.811 48.168H244.047L241.119 50.976L244.299 54H243.063L240.111 51.264H240.087V54H239.115ZM247.591 54.108C246.671 54.108 245.943 53.84 245.407 53.304C244.871 52.76 244.603 52.024 244.603 51.096C244.603 50.496 244.723 49.968 244.963 49.512C245.203 49.048 245.531 48.692 245.947 48.444C246.371 48.188 246.859 48.06 247.411 48.06C248.203 48.06 248.823 48.316 249.271 48.828C249.719 49.332 249.943 50.028 249.943 50.916V51.288H245.551C245.583 51.952 245.775 52.46 246.127 52.812C246.479 53.156 246.967 53.328 247.591 53.328C247.943 53.328 248.279 53.276 248.599 53.172C248.919 53.06 249.223 52.88 249.511 52.632L249.847 53.316C249.583 53.564 249.247 53.76 248.839 53.904C248.431 54.04 248.015 54.108 247.591 54.108ZM247.435 48.78C246.883 48.78 246.447 48.952 246.127 49.296C245.807 49.64 245.619 50.092 245.563 50.652H249.103C249.079 50.06 248.923 49.6 248.635 49.272C248.355 48.944 247.955 48.78 247.435 48.78ZM251.35 54V48.168H252.298V49.164C252.49 48.796 252.762 48.52 253.114 48.336C253.466 48.152 253.862 48.06 254.302 48.06C255.686 48.06 256.378 48.828 256.378 50.364V54H255.406V50.424C255.406 49.88 255.298 49.484 255.082 49.236C254.874 48.98 254.538 48.852 254.074 48.852C253.538 48.852 253.11 49.02 252.79 49.356C252.478 49.684 252.322 50.124 252.322 50.676V54H251.35Z" fill="#56585A"/>
</svg>
