<svg width="70" height="70" viewBox="0 0 70 70" fill="none" xmlns="http://www.w3.org/2000/svg">
<path d="M59.0625 15.3125H42.6562C41.4959 15.3125 40.3831 15.7734 39.5627 16.5939C38.7422 17.4144 38.2812 18.5272 38.2812 19.6875V37.1875C38.2812 38.3478 38.7422 39.4606 39.5627 40.2811C40.3831 41.1016 41.4959 41.5625 42.6562 41.5625H59.0625V43.75C59.0553 46.0684 58.1311 48.2898 56.4917 49.9292C54.8523 51.5686 52.6309 52.4928 50.3125 52.5C49.7323 52.5 49.1759 52.7305 48.7657 53.1407C48.3555 53.5509 48.125 54.1073 48.125 54.6875C48.125 55.2677 48.3555 55.8241 48.7657 56.2343C49.1759 56.6445 49.7323 56.875 50.3125 56.875C53.7935 56.875 57.1319 55.4922 59.5933 53.0308C62.0547 50.5694 63.4375 47.231 63.4375 43.75V19.6875C63.4375 18.5272 62.9766 17.4144 62.1561 16.5939C61.3356 15.7734 60.2228 15.3125 59.0625 15.3125Z" fill="#6B6F71"/>
<path d="M31.7188 43.75V19.6875C31.7188 18.5272 31.2578 17.4144 30.4373 16.5939C29.6169 15.7734 28.5041 15.3125 27.3438 15.3125H10.9375C9.77718 15.3125 8.66438 15.7734 7.84391 16.5939C7.02344 17.4144 6.5625 18.5272 6.5625 19.6875V37.1875C6.5625 38.3478 7.02344 39.4606 7.84391 40.2811C8.66438 41.1016 9.77718 41.5625 10.9375 41.5625H27.3438V43.75C27.3365 46.0684 26.4124 48.2898 24.773 49.9292C23.1336 51.5686 20.9122 52.4928 18.5938 52.5C18.0136 52.5 17.4572 52.7305 17.047 53.1407C16.6367 53.5509 16.4062 54.1073 16.4062 54.6875C16.4062 55.2677 16.6367 55.8241 17.047 56.2343C17.4572 56.6445 18.0136 56.875 18.5938 56.875C22.0747 56.875 25.4131 55.4922 27.8745 53.0308C30.3359 50.5694 31.7188 47.231 31.7188 43.75Z" fill="#ABB1B4"/>
</svg>
