<svg width="70" height="70" viewBox="0 0 70 70" fill="none" xmlns="http://www.w3.org/2000/svg">
<path d="M10.9375 54.6875H27.3438C28.5041 54.6875 29.6169 54.2266 30.4373 53.4061C31.2578 52.5856 31.7188 51.4728 31.7188 50.3125L31.7188 32.8125C31.7188 31.6522 31.2578 30.5394 30.4373 29.7189C29.6169 28.8984 28.5041 28.4375 27.3438 28.4375L10.9375 28.4375V26.25C10.9447 23.9316 11.8689 21.7102 13.5083 20.0708C15.1477 18.4314 17.3691 17.5072 19.6875 17.5C20.2677 17.5 20.8241 17.2695 21.2343 16.8593C21.6445 16.4491 21.875 15.8927 21.875 15.3125C21.875 14.7323 21.6445 14.1759 21.2343 13.7657C20.8241 13.3555 20.2677 13.125 19.6875 13.125C16.2065 13.125 12.8681 14.5078 10.4067 16.9692C7.94531 19.4306 6.5625 22.769 6.5625 26.25L6.5625 50.3125C6.5625 51.4728 7.02344 52.5856 7.84391 53.4061C8.66438 54.2266 9.77718 54.6875 10.9375 54.6875Z" fill="#6B6F71"/>
<path d="M38.2812 26.25V50.3125C38.2812 51.4728 38.7422 52.5856 39.5627 53.4061C40.3831 54.2266 41.4959 54.6875 42.6562 54.6875H59.0625C60.2228 54.6875 61.3356 54.2266 62.1561 53.4061C62.9766 52.5856 63.4375 51.4728 63.4375 50.3125V32.8125C63.4375 31.6522 62.9766 30.5394 62.1561 29.7189C61.3356 28.8984 60.2228 28.4375 59.0625 28.4375L42.6562 28.4375V26.25C42.6635 23.9316 43.5876 21.7102 45.227 20.0708C46.8664 18.4314 49.0878 17.5072 51.4063 17.5C51.9864 17.5 52.5428 17.2695 52.953 16.8593C53.3633 16.4491 53.5938 15.8927 53.5938 15.3125C53.5938 14.7323 53.3633 14.1759 52.953 13.7657C52.5428 13.3555 51.9864 13.125 51.4063 13.125C47.9253 13.125 44.5869 14.5078 42.1255 16.9692C39.6641 19.4306 38.2812 22.769 38.2812 26.25Z" fill="#ABB1B4"/>
</svg>
