<svg width="30" height="31" viewBox="0 0 30 31" fill="none" xmlns="http://www.w3.org/2000/svg">
<path d="M15 21.125C18.1066 21.125 20.625 18.6066 20.625 15.5C20.625 12.3934 18.1066 9.875 15 9.875C11.8934 9.875 9.375 12.3934 9.375 15.5C9.375 18.6066 11.8934 21.125 15 21.125Z" stroke="#56585A" stroke-width="2" stroke-linecap="round" stroke-linejoin="round"/>
<path d="M21.293 7.89453C21.5898 8.16797 21.8711 8.44922 22.1367 8.73828L25.3359 9.19531C25.8572 10.1006 26.259 11.0696 26.5312 12.0781L24.5859 14.668C24.5859 14.668 24.6211 15.4648 24.5859 15.8633L26.5312 18.4531C26.2603 19.4621 25.8584 20.4312 25.3359 21.3359L22.1367 21.793C22.1367 21.793 21.5859 22.3672 21.293 22.6367L20.8359 25.8359C19.9307 26.3572 18.9617 26.759 17.9531 27.0312L15.3633 25.0859C14.9656 25.1211 14.5656 25.1211 14.168 25.0859L11.5781 27.0312C10.5692 26.7603 9.6 26.3584 8.69531 25.8359L8.23828 22.6367C7.94922 22.3633 7.66797 22.082 7.39453 21.793L4.19531 21.3359C3.67404 20.4307 3.27226 19.4617 3 18.4531L4.94531 15.8633C4.94531 15.8633 4.91016 15.0664 4.94531 14.668L3 12.0781C3.271 11.0692 3.67285 10.1 4.19531 9.19531L7.39453 8.73828C7.66797 8.44922 7.94922 8.16797 8.23828 7.89453L8.69531 4.69531C9.60059 4.17404 10.5696 3.77226 11.5781 3.5L14.168 5.44531C14.5656 5.41015 14.9656 5.41015 15.3633 5.44531L17.9531 3.5C18.9621 3.771 19.9312 4.17285 20.8359 4.69531L21.293 7.89453Z" stroke="#56585A" stroke-width="2" stroke-linecap="round" stroke-linejoin="round"/>
</svg>
