<svg width="100" height="100" viewBox="0 0 100 100" fill="none" xmlns="http://www.w3.org/2000/svg">
<path d="M81.2478 52.0833H79.1665V70.8333H81.9436C83.9748 70.8333 85.7103 69.3687 86.0519 67.3666L87.4123 59.3833C88.0603 55.5666 85.1186 52.0833 81.2478 52.0833Z" fill="url(#paint0_linear_10_4314)"/>
<path d="M18.7519 52.0833H20.8332V70.8333H18.0561C16.0248 70.8333 14.2894 69.3687 13.9477 67.3666L12.5873 59.3833C11.9394 55.5666 14.8811 52.0833 18.7519 52.0833Z" fill="url(#paint1_linear_10_4314)"/>
<path d="M50 12.5C34.5792 12.5 18.75 18.75 18.75 52.0833C18.75 54.7521 18.75 64.4167 18.75 67.2667C18.75 79.1667 37.5 93.75 50 93.75C62.5 93.75 81.25 79.1667 81.25 67.2667C81.25 64.4167 81.25 54.7521 81.25 52.0833C81.25 18.75 65.4208 12.5 50 12.5Z" fill="url(#paint2_radial_10_4314)"/>
<path d="M50.0002 8.33331C33.371 8.33331 29.1668 14.5833 29.1668 14.5833C22.4064 15.5812 14.5835 24.0958 14.5835 35.4166C14.5835 41.7333 15.9439 44.6646 18.7502 60.4166C20.8335 35.4166 22.9168 27.0833 27.0835 27.0833C33.3335 27.0833 33.3335 31.25 51.621 31.25C62.0856 31.25 66.6668 27.0833 70.8335 27.0833C81.2502 27.0833 81.2502 56.475 81.2502 60.4166C82.9293 44.9896 83.3335 40.9354 83.3335 35.4166C83.3335 22.3166 73.7147 8.33331 50.0002 8.33331Z" fill="url(#paint3_radial_10_4314)"/>
<path d="M50 85.4167H68.75C76.8042 85.4167 83.3333 78.8875 83.3333 70.8333V31.25C83.3333 20.8937 74.9396 12.5 64.5833 12.5H52.0833" stroke="#5E6770" stroke-width="2" stroke-miterlimit="10" stroke-linecap="round"/>
<path d="M50 87.5C53.4518 87.5 56.25 84.7018 56.25 81.25C56.25 77.7982 53.4518 75 50 75C46.5482 75 43.75 77.7982 43.75 81.25C43.75 84.7018 46.5482 87.5 50 87.5Z" fill="url(#paint4_linear_10_4314)"/>
<path d="M85.4167 70.8333H81.25V52.0833H85.4167C87.7187 52.0833 89.5833 53.9479 89.5833 56.25V66.6666C89.5833 68.9687 87.7187 70.8333 85.4167 70.8333Z" fill="url(#paint5_linear_10_4314)"/>
<path d="M49.9999 6.25C33.3707 6.25 29.1665 14.5833 29.1665 14.5833C28.9999 19.0104 31.2499 22.9167 31.2499 22.9167C31.2499 22.9167 34.2915 29.1667 51.6207 29.1667C62.0853 29.1667 77.0832 22.9229 77.0832 6.25C77.0832 6.25 73.7145 6.25 49.9999 6.25Z" fill="url(#paint6_radial_10_4314)"/>
<defs>
<linearGradient id="paint0_linear_10_4314" x1="81.2509" y1="61.4583" x2="86.5159" y2="61.4583" gradientUnits="userSpaceOnUse">
<stop stop-color="#C48F0C"/>
<stop offset="0.2507" stop-color="#D19B16"/>
<stop offset="0.6187" stop-color="#DCA51F"/>
<stop offset="1" stop-color="#E0A922"/>
</linearGradient>
<linearGradient id="paint1_linear_10_4314" x1="18.7488" y1="61.4583" x2="13.4838" y2="61.4583" gradientUnits="userSpaceOnUse">
<stop stop-color="#C48F0C"/>
<stop offset="0.2507" stop-color="#D19B16"/>
<stop offset="0.6187" stop-color="#DCA51F"/>
<stop offset="1" stop-color="#E0A922"/>
</linearGradient>
<radialGradient id="paint2_radial_10_4314" cx="0" cy="0" r="1" gradientUnits="userSpaceOnUse" gradientTransform="translate(50 53.125) scale(36.2419)">
<stop stop-color="#FFCF54"/>
<stop offset="0.2609" stop-color="#FDCB4D"/>
<stop offset="0.6392" stop-color="#F7C13A"/>
<stop offset="1" stop-color="#F0B421"/>
</radialGradient>
<radialGradient id="paint3_radial_10_4314" cx="0" cy="0" r="1" gradientUnits="userSpaceOnUse" gradientTransform="translate(19.5539 12.3604) scale(89.0935 89.0935)">
<stop offset="0.000198745" stop-color="#C26715"/>
<stop offset="0.5078" stop-color="#B85515"/>
<stop offset="1" stop-color="#AD3F16"/>
</radialGradient>
<linearGradient id="paint4_linear_10_4314" x1="46.9512" y1="75.3317" x2="52.8571" y2="86.796" gradientUnits="userSpaceOnUse">
<stop stop-color="#8795A1"/>
<stop offset="1" stop-color="#6D7882"/>
</linearGradient>
<linearGradient id="paint5_linear_10_4314" x1="79.8008" y1="52.1341" x2="88.7948" y2="69.5931" gradientUnits="userSpaceOnUse">
<stop stop-color="#8795A1"/>
<stop offset="1" stop-color="#6D7882"/>
</linearGradient>
<radialGradient id="paint6_radial_10_4314" cx="0" cy="0" r="1" gradientUnits="userSpaceOnUse" gradientTransform="translate(43.4001 19.1212) scale(112.461 112.461)">
<stop offset="0.000198745" stop-color="#C26715"/>
<stop offset="0.5078" stop-color="#B85515"/>
<stop offset="1" stop-color="#AD3F16"/>
</radialGradient>
</defs>
</svg>
