<svg width="100" height="72" viewBox="0 0 100 72" fill="none" xmlns="http://www.w3.org/2000/svg">
<path d="M95.8332 60.9999H66.6665V15.1666H88.6644C90.4561 15.1666 92.0498 16.3145 92.6165 18.0166L99.9998 40.1666V56.8333C99.9998 59.1354 98.1352 60.9999 95.8332 60.9999Z" fill="#EDBE00"/>
<path d="M93.7498 61C93.7498 66.7521 89.0873 71.4166 83.3332 71.4166C77.579 71.4166 72.9165 66.7521 72.9165 61C72.9165 55.2479 77.579 50.5833 83.3332 50.5833C89.0873 50.5833 93.7498 55.2479 93.7498 61Z" fill="#586169"/>
<path d="M87.4998 60.9999C87.4998 63.302 85.6353 65.1666 83.3332 65.1666C81.0311 65.1666 79.1665 63.302 79.1665 60.9999C79.1665 58.6978 81.0311 56.8333 83.3332 56.8333C85.6353 56.8333 87.4998 58.6978 87.4998 60.9999Z" fill="#999999"/>
<path d="M91.6667 38.0833H77.0833C75.9333 38.0833 75 37.15 75 36V21.4166C75 20.2666 75.9333 19.3333 77.0833 19.3333H87.5C88.4 19.3333 89.1937 19.9062 89.4771 20.7583L93.6437 33.2583C93.7125 33.4708 93.75 33.6937 93.75 33.9166V36C93.75 37.15 92.8167 38.0833 91.6667 38.0833Z" fill="#AD8B00"/>
<path d="M62.5 0.583313H2.08333C0.933333 0.583313 0 1.51665 0 2.66664C0 3.81664 0.933333 4.74998 2.08333 4.74998H12.5V13.0833H4.16666C3.01666 13.0833 2.08333 14.0166 2.08333 15.1666C2.08333 16.3166 3.01666 17.25 4.16666 17.25H12.5V25.5833H6.25C5.1 25.5833 4.16666 26.5166 4.16666 27.6666C4.16666 28.8166 5.1 29.75 6.25 29.75H12.5V38.0833H8.33333C7.18333 38.0833 6.25 39.0166 6.25 40.1666C6.25 41.3166 7.18333 42.25 8.33333 42.25H12.5V56.8333C12.5 59.1354 14.3646 60.9999 16.6667 60.9999H66.6666V4.74998C66.6666 2.44789 64.802 0.583313 62.5 0.583313Z" fill="url(#paint0_linear_10_4301)"/>
<path d="M25 33.9166H12.5V29.7499H25C26.15 29.7499 27.0833 30.6833 27.0833 31.8333C27.0833 32.9833 26.15 33.9166 25 33.9166Z" fill="url(#paint1_linear_10_4301)"/>
<path d="M16.6667 46.4166H12.5V42.2499H16.6667C17.8167 42.2499 18.75 43.1833 18.75 44.3333C18.75 45.4833 17.8167 46.4166 16.6667 46.4166Z" fill="url(#paint2_linear_10_4301)"/>
<path d="M35.4167 21.4166H12.5V17.2499H35.4167C36.5666 17.2499 37.5 18.1833 37.5 19.3333C37.5 20.4833 36.5666 21.4166 35.4167 21.4166Z" fill="url(#paint3_linear_10_4301)"/>
<path d="M43.75 8.91666H12.5V4.75H43.75C44.9 4.75 45.8333 5.68333 45.8333 6.83333C45.8333 7.98333 44.9 8.91666 43.75 8.91666Z" fill="url(#paint4_linear_10_4301)"/>
<path d="M43.7498 61C43.7498 66.7521 39.0852 71.4166 33.3332 71.4166C27.5811 71.4166 22.9165 66.7521 22.9165 61C22.9165 55.2479 27.5811 50.5833 33.3332 50.5833C39.0852 50.5833 43.7498 55.2479 43.7498 61Z" fill="#586169"/>
<path d="M37.4998 60.9999C37.4998 63.302 35.6353 65.1666 33.3332 65.1666C31.0311 65.1666 29.1665 63.302 29.1665 60.9999C29.1665 58.6978 31.0311 56.8333 33.3332 56.8333C35.6353 56.8333 37.4998 58.6978 37.4998 60.9999Z" fill="#999999"/>
<defs>
<linearGradient id="paint0_linear_10_4301" x1="15.6021" y1="-5.9146" x2="57.9791" y2="58.9479" gradientUnits="userSpaceOnUse">
<stop stop-color="#4FD2F4"/>
<stop offset="0.587" stop-color="#358CEC"/>
<stop offset="1" stop-color="#6E20E5"/>
</linearGradient>
<linearGradient id="paint1_linear_10_4301" x1="19.7917" y1="33.9166" x2="19.7917" y2="29.7499" gradientUnits="userSpaceOnUse">
<stop stop-color="#194AA2"/>
<stop offset="1" stop-color="#321AA9"/>
</linearGradient>
<linearGradient id="paint2_linear_10_4301" x1="15.625" y1="46.4166" x2="15.625" y2="42.2499" gradientUnits="userSpaceOnUse">
<stop stop-color="#194AA2"/>
<stop offset="1" stop-color="#321AA9"/>
</linearGradient>
<linearGradient id="paint3_linear_10_4301" x1="25" y1="21.4166" x2="25" y2="17.2499" gradientUnits="userSpaceOnUse">
<stop stop-color="#194AA2"/>
<stop offset="1" stop-color="#321AA9"/>
</linearGradient>
<linearGradient id="paint4_linear_10_4301" x1="29.1667" y1="8.91666" x2="29.1667" y2="4.75" gradientUnits="userSpaceOnUse">
<stop stop-color="#194AA2"/>
<stop offset="1" stop-color="#321AA9"/>
</linearGradient>
</defs>
</svg>
