<svg width="100" height="100" viewBox="0 0 100 100" fill="none" xmlns="http://www.w3.org/2000/svg">
<path d="M45.3125 82.8125C29.8047 82.8125 17.1875 70.1953 17.1875 54.6875C17.1875 39.1797 29.8047 26.5625 45.3125 26.5625C60.8203 26.5625 73.4375 39.1797 73.4375 54.6875C73.4375 70.1953 60.8203 82.8125 45.3125 82.8125ZM45.3125 29.6875C31.5281 29.6875 20.3125 40.9031 20.3125 54.6875C20.3125 68.4719 31.5281 79.6875 45.3125 79.6875C59.0969 79.6875 70.3125 68.4719 70.3125 54.6875C70.3125 40.9031 59.0984 29.6875 45.3125 29.6875Z" fill="url(#paint0_linear_10_4373)"/>
<path d="M75.8875 42.7516C77.3734 46.55 78.125 50.5656 78.125 54.6875C78.125 72.7797 63.4047 87.5 45.3125 87.5C27.2203 87.5 12.5 72.7797 12.5 54.6875C12.5 36.5953 27.2203 21.875 45.3125 21.875C49.4313 21.875 53.4469 22.6281 57.2531 24.1141L58.3891 21.2031C54.2219 19.575 49.8219 18.75 45.3125 18.75C25.4969 18.75 9.375 34.8703 9.375 54.6875C9.375 74.5047 25.4953 90.625 45.3125 90.625C65.1297 90.625 81.25 74.5047 81.25 54.6875C81.25 50.175 80.425 45.7766 78.7984 41.6141L75.8875 42.7516Z" fill="url(#paint1_linear_10_4373)"/>
<path d="M90.4905 22.8187C90.153 21.7046 89.2343 20.8703 88.0937 20.6406L80.8124 19.1843L79.3577 11.9109C79.1296 10.7687 78.2968 9.84994 77.1812 9.51088C76.0687 9.17181 74.8624 9.47181 74.0358 10.2984L63.8843 20.4515C62.764 21.5734 62.2827 23.1703 62.5921 24.7234L64.3374 33.5656L62.864 35.1562L58.5124 39.3937C54.9577 36.3453 50.3515 34.4312 45.314 34.4312C34.114 34.4312 25.0015 43.5156 25.0015 54.7156C25.0015 65.9156 34.114 75.014 45.314 75.014C56.514 75.014 65.6265 65.8937 65.6265 54.6937C65.6265 49.6546 63.7718 45.0453 60.7218 41.4906L66.5483 35.6624L75.2733 37.4078C75.5843 37.4703 75.8952 37.4999 76.2062 37.4999C77.4483 37.4999 78.6499 37.0093 79.5483 36.1124L89.7015 25.9562C90.5233 25.1359 90.8249 23.9328 90.4905 22.8187ZM76.2937 12.5234L77.7874 19.9984L75.3843 22.4031L73.7187 24.0687L72.2202 16.5734L76.2937 12.5234ZM65.6562 24.1124C65.5515 23.5859 65.7155 23.0421 66.0952 22.6609L69.5608 19.2156L71.0624 26.7249L66.9921 30.7953L65.6562 24.1124ZM62.4999 54.6874C62.4999 64.164 54.789 71.8749 45.3124 71.8749C35.8358 71.8749 28.1249 64.164 28.1249 54.6874C28.1249 45.2109 35.8358 37.4999 45.3124 37.4999C49.489 37.4999 53.3218 38.9999 56.303 41.4874L48.4671 49.3218C47.539 48.7734 46.4687 48.4374 45.3124 48.4374C41.8655 48.4374 39.0624 51.2406 39.0624 54.6874C39.0624 58.1343 41.8655 60.9374 45.3124 60.9374C48.7593 60.9374 51.5624 58.1343 51.5624 54.6874C51.5624 53.5312 51.2265 52.4624 50.6765 51.5312L58.5124 43.6968C60.9999 46.6781 62.4999 50.5109 62.4999 54.6874ZM48.4374 54.6874C48.4374 56.4109 47.0358 57.8124 45.3124 57.8124C43.589 57.8124 42.1874 56.4109 42.1874 54.6874C42.1874 52.964 43.589 51.5624 45.3124 51.5624C47.0358 51.5624 48.4374 52.964 48.4374 54.6874ZM77.3374 33.9046C76.9562 34.2859 76.4124 34.4484 75.8858 34.3437L69.203 33.0062L73.2733 28.9374L80.7983 30.4421L77.3374 33.9046ZM83.453 27.7874L75.9296 26.2812L79.8937 22.3171L79.9968 22.214L87.4937 23.7468L83.453 27.7874Z" fill="url(#paint2_linear_10_4373)"/>
<defs>
<linearGradient id="paint0_linear_10_4373" x1="45.313" y1="23.828" x2="45.313" y2="84.1377" gradientUnits="userSpaceOnUse">
<stop stop-color="#70DFFF"/>
<stop offset="1" stop-color="#70AFFF"/>
</linearGradient>
<linearGradient id="paint1_linear_10_4373" x1="45.313" y1="8.20281" x2="45.313" y2="93.1989" gradientUnits="userSpaceOnUse">
<stop stop-color="#00C6FF"/>
<stop offset="1" stop-color="#0072FF"/>
</linearGradient>
<linearGradient id="paint2_linear_10_4373" x1="57.8124" y1="8.2026" x2="57.8124" y2="93.2173" gradientUnits="userSpaceOnUse">
<stop stop-color="#00C6FF"/>
<stop offset="1" stop-color="#0072FF"/>
</linearGradient>
</defs>
</svg>
