<svg width="100" height="100" viewBox="0 0 100 100" fill="none" xmlns="http://www.w3.org/2000/svg">
<path d="M68.75 75H54.6875V78.125H68.75V75Z" fill="url(#paint0_linear_10_4363)"/>
<path d="M45.3125 75H31.25V78.125H45.3125V75Z" fill="url(#paint1_linear_10_4363)"/>
<path d="M50 45.3125C53.4518 45.3125 56.25 42.5143 56.25 39.0625C56.25 35.6107 53.4518 32.8125 50 32.8125C46.5482 32.8125 43.75 35.6107 43.75 39.0625C43.75 42.5143 46.5482 45.3125 50 45.3125Z" fill="url(#paint2_linear_10_4363)"/>
<path d="M82.0844 54.875L68.75 41.5406V37.5C68.75 27.6844 62.3109 9.375 50 9.375C37.6891 9.375 31.25 27.6844 31.25 37.5V41.5406L17.9156 54.875C16.4391 56.3516 15.625 58.3156 15.625 60.4031V70.3125C15.625 72.8969 17.7281 75 20.3125 75H28.125V76.5625C28.125 79.1469 30.2281 81.25 32.8125 81.25H34.375V82.8125C34.375 85.3969 36.4781 87.5 39.0625 87.5H45.6C46.2469 89.3156 47.9656 90.625 50 90.625C52.0344 90.625 53.7531 89.3156 54.4 87.5H60.9375C63.5219 87.5 65.625 85.3969 65.625 82.8125V81.25H67.1875C69.7719 81.25 71.875 79.1469 71.875 76.5625V75H79.6875C82.2719 75 84.375 72.8969 84.375 70.3125V60.4031C84.375 58.3156 83.5609 56.3516 82.0844 54.875ZM50 12.5C59.6922 12.5 65.625 28.6859 65.625 37.5V65.625H59.375V68.75H65.625V71.875H54.6875V64.0625C54.6875 61.4781 52.5844 59.375 50 59.375C47.4156 59.375 45.3125 61.4781 45.3125 64.0625V71.875H34.375V68.75H40.625V65.625H34.375V37.5C34.375 28.6859 40.3078 12.5 50 12.5ZM20.3125 71.875C19.45 71.875 18.75 71.1734 18.75 70.3125V60.4031C18.75 59.15 19.2391 57.9703 20.125 57.0844L25 52.2094V68.75H28.125V49.0844L31.25 45.9594V71.875H28.125H20.3125ZM32.8125 78.125C31.95 78.125 31.25 77.4234 31.25 76.5625V75H32.8125H45.3125V78.125H32.8125ZM37.5 82.8125V81.25H45.3125V84.375H39.0625C38.2 84.375 37.5 83.6734 37.5 82.8125ZM51.5625 85.9375C51.5625 86.7984 50.8625 87.5 50 87.5C49.1375 87.5 48.4375 86.7984 48.4375 85.9375V64.0625C48.4375 63.2016 49.1375 62.5 50 62.5C50.8625 62.5 51.5625 63.2016 51.5625 64.0625V85.9375ZM62.5 82.8125C62.5 83.6734 61.8 84.375 60.9375 84.375H54.6875V81.25H62.5V82.8125ZM68.75 76.5625C68.75 77.4234 68.05 78.125 67.1875 78.125H54.6875V75H67.1875H68.75V76.5625ZM81.25 70.3125C81.25 71.1734 80.55 71.875 79.6875 71.875H71.875H68.75V45.9594L71.875 49.0844V68.75H75V52.2094L79.875 57.0844C80.7609 57.9703 81.25 59.15 81.25 60.4031V70.3125Z" fill="url(#paint3_linear_10_4363)"/>
<path d="M50 46.875C54.3078 46.875 57.8125 43.3703 57.8125 39.0625C57.8125 34.7547 54.3078 31.25 50 31.25C45.6922 31.25 42.1875 34.7547 42.1875 39.0625C42.1875 43.3703 45.6922 46.875 50 46.875ZM50 34.375C52.5844 34.375 54.6875 36.4781 54.6875 39.0625C54.6875 41.6469 52.5844 43.75 50 43.75C47.4156 43.75 45.3125 41.6469 45.3125 39.0625C45.3125 36.4781 47.4156 34.375 50 34.375Z" fill="url(#paint4_linear_10_4363)"/>
<defs>
<linearGradient id="paint0_linear_10_4363" x1="61.7187" y1="73.8281" x2="61.7187" y2="79.1052" gradientUnits="userSpaceOnUse">
<stop stop-color="#70DFFF"/>
<stop offset="1" stop-color="#70AFFF"/>
</linearGradient>
<linearGradient id="paint1_linear_10_4363" x1="38.2812" y1="73.8281" x2="38.2812" y2="79.1052" gradientUnits="userSpaceOnUse">
<stop stop-color="#70DFFF"/>
<stop offset="1" stop-color="#70AFFF"/>
</linearGradient>
<linearGradient id="paint2_linear_10_4363" x1="50" y1="32.0312" x2="50" y2="45.3125" gradientUnits="userSpaceOnUse">
<stop stop-color="#70DFFF"/>
<stop offset="1" stop-color="#70AFFF"/>
</linearGradient>
<linearGradient id="paint3_linear_10_4363" x1="50" y1="8.20312" x2="50" y2="92.7083" gradientUnits="userSpaceOnUse">
<stop stop-color="#00C6FF"/>
<stop offset="1" stop-color="#0072FF"/>
</linearGradient>
<linearGradient id="paint4_linear_10_4363" x1="50" y1="8.20313" x2="50" y2="92.7083" gradientUnits="userSpaceOnUse">
<stop stop-color="#00C6FF"/>
<stop offset="1" stop-color="#0072FF"/>
</linearGradient>
</defs>
</svg>
