<svg width="41" height="41" viewBox="0 0 41 41" fill="none" xmlns="http://www.w3.org/2000/svg">
<rect width="41" height="41" rx="6" fill="white"/>
<path d="M30.1992 15.1648L25.835 10.8015C25.6899 10.6564 25.5176 10.5413 25.328 10.4627C25.1384 10.3842 24.9352 10.3438 24.73 10.3438C24.5248 10.3438 24.3216 10.3842 24.132 10.4627C23.9424 10.5413 23.7701 10.6564 23.625 10.8015L11.583 22.8435C11.4373 22.9881 11.3218 23.1602 11.2431 23.3498C11.1645 23.5394 11.1244 23.7427 11.125 23.948V28.3123C11.125 28.7267 11.2896 29.1241 11.5827 29.4171C11.8757 29.7101 12.2731 29.8748 12.6875 29.8748H29.0938C29.301 29.8748 29.4997 29.7925 29.6462 29.6459C29.7927 29.4994 29.875 29.3007 29.875 29.0935C29.875 28.8863 29.7927 28.6876 29.6462 28.5411C29.4997 28.3946 29.301 28.3123 29.0938 28.3123H19.2617L30.1992 17.3748C30.3444 17.2297 30.4595 17.0574 30.538 16.8678C30.6166 16.6782 30.657 16.475 30.657 16.2698C30.657 16.0646 30.6166 15.8614 30.538 15.6718C30.4595 15.4822 30.3444 15.3099 30.1992 15.1648ZM21.2813 15.3543L22.9111 16.9841L14.6406 25.2546L13.0108 23.6248L21.2813 15.3543ZM12.6875 28.3123V25.5105L15.4893 28.3123H12.6875ZM17.375 27.989L15.7461 26.3591L24.0156 18.0886L25.6455 19.7185L17.375 27.989ZM26.75 18.614L22.3867 14.2498L24.7305 11.906L29.0938 16.2703L26.75 18.614Z" fill="#535353"/>
<rect x="0.5" y="0.5" width="40" height="40" rx="5.5" stroke="black" stroke-opacity="0.5"/>
</svg>
