<svg width="32" height="33" viewBox="0 0 32 33" fill="none" xmlns="http://www.w3.org/2000/svg">
<path d="M27 7.5H5" stroke="#4E97FD" stroke-width="2" stroke-linecap="round" stroke-linejoin="round"/>
<path d="M13 13.5V21.5" stroke="#4E97FD" stroke-width="2" stroke-linecap="round" stroke-linejoin="round"/>
<path d="M19 13.5V21.5" stroke="#4E97FD" stroke-width="2" stroke-linecap="round" stroke-linejoin="round"/>
<path d="M25 7.5V26.5C25 26.7652 24.8946 27.0196 24.7071 27.2071C24.5196 27.3946 24.2652 27.5 24 27.5H8C7.73478 27.5 7.48043 27.3946 7.29289 27.2071C7.10536 27.0196 7 26.7652 7 26.5V7.5" stroke="#4E97FD" stroke-width="2" stroke-linecap="round" stroke-linejoin="round"/>
<path d="M21 7.5V5.5C21 4.96957 20.7893 4.46086 20.4142 4.08579C20.0391 3.71071 19.5304 3.5 19 3.5H13C12.4696 3.5 11.9609 3.71071 11.5858 4.08579C11.2107 4.46086 11 4.96957 11 5.5V7.5" stroke="#4E97FD" stroke-width="2" stroke-linecap="round" stroke-linejoin="round"/>
</svg>
